<svg xmlns="http://www.w3.org/2000/svg" xmlns:xlink="http://www.w3.org/1999/xlink" id="Layer_1" x="0" y="0" version="1.1" viewBox="0 0 47 44" xml:space="preserve" style="enable-background:new 0 0 47 44"><style type="text/css">.st0{fill:url(#SVGID_1_)}.st1{fill:url(#SVGID_2_)}.st2{fill:url(#SVGID_3_)}.st3{fill:url(#SVGID_4_)}.st4{fill:url(#SVGID_5_)}.st5{fill:url(#SVGID_6_)}.st6{fill-opacity:.17}.st7{fill-opacity:.1}.st8{fill-opacity:.23}.st9{fill:silver;fill-opacity:5.000000e-02}.st10,.st11{fill-opacity:.15}.st10{fill:#fff}.st11{fill-rule:evenodd;clip-rule:evenodd}.st11,.st12{fill:#fff}</style><linearGradient id="SVGID_1_" x1="0" x2="47" y1="765" y2="765" gradientTransform="matrix(1 0 0 1 0 -754)" gradientUnits="userSpaceOnUse"><stop offset="0" style="stop-color:#6366f1"/><stop offset=".5" style="stop-color:#8b5cf6"/><stop offset="1" style="stop-color:#d946ef"/></linearGradient><path d="M10.2,22l-6.1-9.7L23,0l-0.5,10.7L10.2,22z" class="st0"/><linearGradient id="SVGID_2_" x1="0" x2="47" y1="769.1" y2="769.1" gradientTransform="matrix(1 0 0 1 0 -754)" gradientUnits="userSpaceOnUse"><stop offset="0" style="stop-color:#6366f1"/><stop offset=".5" style="stop-color:#8b5cf6"/><stop offset="1" style="stop-color:#d946ef"/></linearGradient><path d="M22.5,10.7L23,0l19.4,8.7l-4.1,17.4l-26.1,4.1l-2-8.2L22.5,10.7z" class="st1"/><linearGradient id="SVGID_3_" x1="0" x2="47" y1="789.05" y2="789.05" gradientTransform="matrix(1 0 0 1 0 -754)" gradientUnits="userSpaceOnUse"><stop offset="0" style="stop-color:#6366f1"/><stop offset=".5" style="stop-color:#8b5cf6"/><stop offset="1" style="stop-color:#d946ef"/></linearGradient><path d="M31.2,44L12.3,30.2l26.1-4.1l4.6,4.6L31.2,44z" class="st2"/><linearGradient id="SVGID_4_" x1="0" x2="47" y1="773.7" y2="773.7" gradientTransform="matrix(1 0 0 1 0 -754)" gradientUnits="userSpaceOnUse"><stop offset="0" style="stop-color:#6366f1"/><stop offset=".5" style="stop-color:#8b5cf6"/><stop offset="1" style="stop-color:#d946ef"/></linearGradient><path d="M38.3,26.1l4.6,4.6L47,17.9l-4.6-9.2L38.3,26.1z" class="st3"/><linearGradient id="SVGID_5_" x1="0" x2="47" y1="789.3" y2="789.3" gradientTransform="matrix(1 0 0 1 0 -754)" gradientUnits="userSpaceOnUse"><stop offset="0" style="stop-color:#6366f1"/><stop offset=".5" style="stop-color:#8b5cf6"/><stop offset="1" style="stop-color:#d946ef"/></linearGradient><path d="M12.3,30.2L31.2,44l-18.9-2.6L0,26.6L12.3,30.2z" class="st4"/><linearGradient id="SVGID_6_" x1="0" x2="47" y1="775.25" y2="775.25" gradientTransform="matrix(1 0 0 1 0 -754)" gradientUnits="userSpaceOnUse"><stop offset="0" style="stop-color:#6366f1"/><stop offset=".5" style="stop-color:#8b5cf6"/><stop offset="1" style="stop-color:#d946ef"/></linearGradient><path d="M4.1,12.3L0,26.6l12.3,3.6l-2-8.2L4.1,12.3z" class="st5"/><path d="M31.2,44L12.3,30.2l26.1-4.1l4.6,4.6L31.2,44z" class="st6"/><path d="M38.3,26.1l4.6,4.6L47,17.9l-4.6-9.2L38.3,26.1z" class="st7"/><path d="M12.3,30.2L31.2,44l-18.9-2.6L0,26.6L12.3,30.2z" class="st8"/><path d="M4.1,12.3L0,26.6l12.3,3.6l-2-8.2L4.1,12.3z" class="st9"/><path d="M10.2,22l-6.1-9.7L23,0l-0.5,10.7L10.2,22z" class="st10"/><path d="M10.2,22l12.3-11.3L23,0L4.1,12.3L10.2,22z M10.3,21.5l11.9-10.9l0.5-10L4.5,12.4L10.3,21.5z" class="st11"/><path d="M22.8,10.9L10.6,22.1l1.9,7.7l25.6-4l4-16.9L23.3,0.5L22.8,10.9z M22.5,10.7L10.2,22l2,8.2l26.1-4.1l4.1-17.4	L23,0L22.5,10.7z" class="st11"/><path d="M31.1,43.6l11.4-12.9l-4.3-4.3l-25.2,4L31.1,43.6z M31.2,44l11.7-13.3l-4.6-4.6l-26.1,4.1L31.2,44z" class="st11"/><path d="M42.9,30.7L47,17.9l-4.6-9.2l-4.1,17.4L42.9,30.7z M38.7,26l4.1,4.1l3.9-12.2l-4.2-8.3L38.7,26z" class="st11"/><path d="M12.1,30.5L0.9,27.2l11.5,14L30,43.5L12.1,30.5z M12.3,30.2L0,26.6l12.3,14.8L31.2,44L12.3,30.2z" class="st11"/><path d="M0.4,26.4l11.5,3.3L10,22.1L4.2,13L0.4,26.4z M0,26.6l12.3,3.6l-2-8.2l-6.1-9.7L0,26.6z" class="st11"/><path d="M23.7,19h3.5c-0.1-3.1-2.6-5.2-6.4-5.2s-6.5,2.1-6.5,5.2c0,2.5,1.8,4,4.7,4.7l1.9,0.5c1.9,0.5,2.9,1,2.9,2.1	c0,1.3-1.2,2.1-3,2.1c-1.9,0-3.2-0.9-3.4-2.6h-3.5c0.1,3.7,2.7,5.6,6.9,5.6s6.6-2,6.6-5.1c0-2.9-2.2-4.4-5.1-5l-1.5-0.4	C19.2,20.6,18,20,18,18.8c0-1.1,1-1.9,2.7-1.9C22.5,16.9,23.6,17.7,23.7,19z" class="st12"/><path d="M32.5,19.3h-3.2v11.9h3.2V19.3z" class="st12"/><path d="M31.3,9.9h-1.2l-1.5,0.9V12l1.4-0.9l0,0v4.8h1.3C31.3,15.9,31.3,9.9,31.3,9.9z" class="st12"/><path d="M32.7,14.8h2.9v1h1.2v-1h0.7v-1h-0.7V9.9h-1.6l-2.5,3.9C32.7,13.8,32.7,14.8,32.7,14.8z M35.6,13.8H34l0,0	l1.6-2.5l0,0V13.8z" class="st12"/></svg>