<svg xmlns="http://www.w3.org/2000/svg" viewBox="0 0 300 300"><defs><style>.a{fill:#fff;}.b{fill:#ffdb43;}.c{fill:#52bbef;}.d{fill:#ff553e;}</style></defs><title>Message Sent_1</title><circle class="a" cx="27.612" cy="175.82" r="3.905"/><rect class="b" x="147.715" y="135.21" width="143" height="102.451"/><rect class="c" x="214.047" y="72.746" width="30.869" height="18.862" transform="translate(-0.259 0.728) rotate(-0.182)"/><path class="a" d="M276.963,66.452h-64.6a15.479,15.479,0,0,0-15.455,15.455v.332A15.479,15.479,0,0,0,212.36,97.694H255.9l11.342,15.5.872-15.5h8.849a15.479,15.479,0,0,0,15.455-15.455v-.332A15.452,15.452,0,0,0,276.963,66.452Z"/><circle class="b" cx="265.289" cy="82.198" r="10.345"/><rect class="c" x="7.665" y="62.339" width="148.318" height="114.583"/><rect class="d" x="150.986" y="107.239" width="32.28" height="52.803" transform="translate(-6.831 258.259) rotate(-74.264)"/><path class="a" d="M109.992,206.71a21.613,21.613,0,0,0-21.6,21.6,21.613,21.613,0,0,0-21.6-21.6,21.614,21.614,0,0,0,21.6-21.6A21.614,21.614,0,0,0,109.992,206.71Z"/><path class="d" d="M278.168,237.661H248.421l-3.406-16.784h0a10.342,10.342,0,0,0-6.108,1.454l-.166.083a10.426,10.426,0,0,1-13.544-2.493l-1.2-1.537a10.427,10.427,0,0,0-13.877-2.285l-1.5.956,2.949-13.71.042-.25,3.365-15.662,24.72,6.938-3.407-16.619h29.747Z"/><circle cx="264.126" cy="133.631" r="10.428"/><path class="a" d="M257.1,166.327l-.083.167a17.736,17.736,0,0,0-2.2,11.258v.042h-6.855l-.166-.872a13.19,13.19,0,0,0-5.525-8.517l-.083-.083a13.354,13.354,0,0,1-5.526-8.517l-.042-.166h-4.029a3.006,3.006,0,0,1-2.992-2.992v-.083a3.006,3.006,0,0,1,2.992-2.991H235.5L233.465,142.6l25.924,13.336A17.481,17.481,0,0,1,257.1,166.327Z"/><path d="M78.957,85.563l4.362,2.908A3.873,3.873,0,0,1,84.607,93.5l-.041.083a3.879,3.879,0,0,1-5.152,1.62L60.635,85.6l-8.1-4.777a7,7,0,0,1-3.365-7.146v-.125a6.987,6.987,0,0,1,8.517-5.733L86.311,74.47a3.265,3.265,0,0,1,1,5.941l-8.351,5.152"/><path d="M121.167,143.27l-7.478,11.217a8.816,8.816,0,0,1-14.25.582L86.934,139.2,74.761,176.963H18.591l19.9-61.861H88.554L107,140.569l3.532-5.318Z"/><path class="a" d="M148.878,129.809l-.041.083a4.7,4.7,0,0,1-5.817,3.324l-.083-.042a4.3,4.3,0,0,0-4.487,1.454l-.083.083a14.913,14.913,0,0,1-14.707,5.4l-.374-.083-2.16,3.241-10.594-8.06L131.1,104.3l13.751,10.926L142.6,123.12l3.116,1.039A4.651,4.651,0,0,1,148.878,129.809Z"/><path class="a" d="M64.956,115.06a10.883,10.883,0,0,0,10.719-9.1l1.911-11.716L60.635,85.6l-1.121,6.938a4.4,4.4,0,0,0-1.371,8.6L55.858,115.1h9.1Z"/><polygon class="b" points="49.252 115.06 59.514 142.356 83.153 115.06 49.252 115.06"/><path class="a" d="M214.936,187.474l-3.366,15.663-18.861-5.9a18.83,18.83,0,0,1-13.17-18.695l.208-5.526-2.493-1.578a11.434,11.434,0,0,1-5.235-7.811l-1.87-10.636a4.3,4.3,0,0,1,3.573-4.985h.084a4.282,4.282,0,0,1,4.86,3.448l2.119,11.3,5.692,3.283,4.4-8.226a4.407,4.407,0,0,1,6.024-1.787l.083.042a4.442,4.442,0,0,1,1.786,6.024l-4.528,8.309.872.457a14.1,14.1,0,0,1,7.479,13.087v.083Z"/><path d="M259.431,155.941,233.507,142.6h24.387l1.5,12.713C259.389,155.526,259.431,155.733,259.431,155.941Z"/><rect class="a" x="17.264" y="157.917" width="39.429" height="1.264" transform="translate(-125.276 145.185) rotate(-72.163)"/><path class="a" d="M59.385,159.352a3.749,3.749,0,1,1,3.75-3.749A3.757,3.757,0,0,1,59.385,159.352Zm0-6.235A2.49,2.49,0,0,0,56.9,155.6a2.486,2.486,0,0,0,4.971,0A2.49,2.49,0,0,0,59.385,153.117Z"/><polygon class="a" points="77.626 85.209 77.795 85.293 61.997 85.293 59.68 84.114 59.554 84.03 77.795 84.03 77.626 84.156 77.626 85.209"/><polygon class="a" points="45.189 176.708 43.883 176.708 53.572 146.546 57.785 141.827 80.87 115.203 82.513 115.203 58.711 142.628 54.709 147.178 45.189 176.708"/><path d="M214.285,71.1l.084,20.389,32.564-.084-.084-20.389Zm16.3,11.416L216.855,72.361l27.466-.085Zm-4.718-1.9-10.279,8.847-.042-16.472Zm1.053.759,3.707,2.738,3.665-2.738,10.279,8.762-27.888.084Zm8.383-.8,10.279-7.667.042,16.472Z"/><circle cx="242.004" cy="152.443" r="1.474"/><circle cx="270.608" cy="79.101" r="1.39"/><circle cx="263.194" cy="79.143" r="1.39"/><path d="M66.463,102.65H65.2a4.044,4.044,0,0,0,8.088,0H72.023a2.78,2.78,0,0,1-5.56,0Z"/><polygon points="166.977 70.591 177.256 103.913 186.439 91.486 186.566 108.21 205.691 106.441 195.497 116.636 196.381 117.52 209.061 104.882 187.83 106.82 187.703 87.695 177.719 101.133 166.219 63.809 163.143 104.672 164.407 104.756 166.977 70.591"/><path d="M88.158,185.6H86.894A21.3,21.3,0,0,1,65.62,206.871v1.264a21.323,21.323,0,0,1,21.274,21.274h1.264a21.323,21.323,0,0,1,21.274-21.274v-1.264A21.3,21.3,0,0,1,88.158,185.6Zm-.632,38.5a22.612,22.612,0,0,0-16.6-16.6,22.612,22.612,0,0,0,16.6-16.6,22.612,22.612,0,0,0,16.6,16.6A22.612,22.612,0,0,0,87.526,224.1Z"/><path d="M23.873,192.927a4.592,4.592,0,1,0,4.592,4.592A4.6,4.6,0,0,0,23.873,192.927Zm0,7.92a3.328,3.328,0,1,1,3.328-3.328A3.335,3.335,0,0,1,23.873,200.847Z"/><path d="M276.885,134.371a7.81,7.81,0,0,0,.042-.969,11.206,11.206,0,1,0-22.411,0,7.164,7.164,0,0,0,.042.969H195.581l2.78-9.9-41.7-11.753V60.481H5V177.93H147.009v61.589H293.273V134.371ZM265.722,123.46a9.942,9.942,0,1,1-9.942,9.942A9.961,9.961,0,0,1,265.722,123.46Zm-10.153,54.049H249.84l-.084-.379a14.083,14.083,0,0,0-5.856-9.058l-.084-.042a12.964,12.964,0,0,1-3.37-3.412,8.714,8.714,0,0,0,8.467-2.528l-.927-.884a7.493,7.493,0,0,1-8.509,1.769,13.5,13.5,0,0,1-1.011-3.2l-.127-.674h-4.591a2.355,2.355,0,0,1-2.359-2.359v-.084a2.391,2.391,0,0,1,2.359-2.4h3.707l-1.938-10.574,24.855,12.764a17.4,17.4,0,0,1-2.317,9.816l-.085.168A17.866,17.866,0,0,0,255.569,177.509Zm-18.283-34.376h21.527l1.39,11.754Zm17.483-7.5a11.366,11.366,0,0,0,3.665,6.235h-24.56l2.064,11.121h-2.19a3.632,3.632,0,0,0-3.623,3.665v.042a3.623,3.623,0,0,0,3.623,3.623h3.538a14.241,14.241,0,0,0,5.772,8.72l.084.042a12.822,12.822,0,0,1,5.35,8.257l.042.127H236.739l3.37,16.64-36.1-10.153a15.056,15.056,0,0,0-7.962-13.48l-.337-.169,4.3-7.836a5.1,5.1,0,0,0,.422-3.917,4.953,4.953,0,0,0-2.486-3.033l-.084-.043a5.3,5.3,0,0,0-3.918-.421,4.952,4.952,0,0,0-3.033,2.486l-4.129,7.793-4.97-2.907-1.475-7.835,8.762,2.485,6.067-21.526h59.609ZM178.014,171.19a11.222,11.222,0,0,1-5.013-7.5l-1.9-10.784a3.779,3.779,0,0,1,.632-2.823,3.88,3.88,0,0,1,2.444-1.516h.084a3.721,3.721,0,0,1,4.213,2.991l2.19,11.753,8.383,4.887.632-1.1-1.811-1.053,4.17-7.835a3.766,3.766,0,0,1,2.275-1.9,3.8,3.8,0,0,1,2.949.3l.084.042a3.78,3.78,0,0,1,1.854,2.317,3.822,3.822,0,0,1-.337,2.949l-4.929,8.973,1.432.758a13.763,13.763,0,0,1,7.246,12.722l-.042.59,12.427,3.5-3.117,14.618-18.451-5.772A18.449,18.449,0,0,1,180.5,178.983l.168-4.55,4.171,2.654.674-1.053ZM142.67,120.048l-.548,1.9-8.425-2.739-.379,1.222,12.216,4a4.1,4.1,0,0,1,2.7,4.971l-.043.084a4.1,4.1,0,0,1-5.1,2.907h-.084a4.865,4.865,0,0,0-5.182,1.685l-.084.084a14.329,14.329,0,0,1-14.281,5.224l-.8-.168-2.022,3.075-9.732-7.372,20.137-30.289L144.1,115.035l-1.053,3.791-8.8-6.319-.759,1.011Zm-2.57,13.733a3.483,3.483,0,0,1,2.612-.21h.084a5.44,5.44,0,0,0,4.129-.506,5.361,5.361,0,0,0,2.527-3.286l.042-.084a5.416,5.416,0,0,0-3.538-6.488l-2.612-.842,2.991-10.574,14.281,18.536-22.454,10.405Zm21.274-2.443,4.8,6.235,7.372-2.823,13.691,20.558-7.12-2.022-.379-1.938a4.958,4.958,0,0,0-5.645-4h-.084a4.968,4.968,0,0,0-3.286,2.022,3.656,3.656,0,0,0-.59,1.138l-31.173-8.763Zm27.13,23.591-13.692-20.6,21.864-8.341Zm7.077-29.91L166.64,136.056l-18.915-24.518ZM6.306,176.708V61.745H155.434v50.636l-9.815-2.78-1.138,4.044-13.733-10.953L106.4,139.258,88.032,113.9h-19a11.567,11.567,0,0,0,6.192-8.509l1.769-11.037,1.138.589a4.4,4.4,0,0,0,2.064.506,4.545,4.545,0,0,0,4-2.4L84.24,93a4.535,4.535,0,0,0-1.474-5.94l-3.623-2.4,7.625-4.8A3.938,3.938,0,0,0,85.546,72.7L56.521,65.957a8.485,8.485,0,0,0-1.769-.21,7.71,7.71,0,0,0-7.667,6.529V72.4a7.788,7.788,0,0,0,3.707,7.92l7.877,4.633L57.7,91.065a5.111,5.111,0,0,0-4.591,5.055,5.172,5.172,0,0,0,3.033,4.676L54.035,113.94H36.511L16.332,176.666H6.306ZM60.523,99.2a3.638,3.638,0,0,1-2.359.8,3.834,3.834,0,1,1,3.5-5.393l1.138-.5a5.167,5.167,0,0,0-3.876-2.949l.885-5.476,16.008,8.172L73.961,105.3a10.328,10.328,0,0,1-10.236,8.72H55.257l2.064-12.765a5.6,5.6,0,0,0,.843.085,5.149,5.149,0,0,0,3.117-1.053ZM77.8,85.293l4.3,2.823a3.272,3.272,0,0,1,1.095,4.3l-.042.084a3.334,3.334,0,0,1-2.907,1.727,3.584,3.584,0,0,1-1.474-.337L62.039,85.336l-2.316-1.18-.127-.084-8.088-4.761A6.474,6.474,0,0,1,48.39,72.7v-.127a6.477,6.477,0,0,1,6.4-5.476,5.669,5.669,0,0,1,1.474.168L85.293,74a2.655,2.655,0,0,1,.8,4.844l-8.3,5.224-.169.084v1.053ZM17.638,176.708l19.8-61.462h9.984L57.7,142.459,58.88,142,48.77,115.2H87.442l19.041,26.287,3.707-5.6,9.731,7.372-7.245,10.868a8.3,8.3,0,0,1-13.439.548l-12.469-15.84,1.558-4.844-1.221-.379-13.86,43.011H17.638Zm56.955,0L86.3,140.4l11.922,15.166a9.543,9.543,0,0,0,7.5,3.665h.379a9.494,9.494,0,0,0,7.583-4.255l9.52-14.281a15.6,15.6,0,0,0,15.124-5.182l-1.938,6.825,19.041,5.35v29.025Zm73.722,61.547V177.972H156.7v-29.91l13.144,3.707a5.427,5.427,0,0,0,.042,1.433l1.9,10.784a12.339,12.339,0,0,0,5.6,8.341l2.191,1.39-.211,5.266a19.678,19.678,0,0,0,13.818,19.589l18.578,5.813-3.244,15.124,2.78-1.812a9.907,9.907,0,0,1,13.228,2.149l1.222,1.559a11.168,11.168,0,0,0,14.533,2.654l.169-.085a9.93,9.93,0,0,1,5.35-1.432l3.2,15.8H148.315Zm101.988,0-3.159-15.671a9.812,9.812,0,0,1,5.561,2.907l.168.168a8.568,8.568,0,0,0,6.193,2.612h.126a8.613,8.613,0,0,0,6.7-3.2,8.782,8.782,0,0,0,1.77-7.246l-6.488-31.047-1.222.252,6.488,31.048a7.341,7.341,0,0,1-1.517,6.192,7.417,7.417,0,0,1-5.729,2.738h-.126a7.427,7.427,0,0,1-5.308-2.232l-.169-.169a11.17,11.17,0,0,0-13.817-1.811l-.169.084a9.973,9.973,0,0,1-12.933-2.359l-1.221-1.559a11.122,11.122,0,0,0-14.913-2.443l-.211.126,5.982-27.887,32.059,9.015-3.623-3.665a2.911,2.911,0,0,1-.042-4.087l.042-.042a2.779,2.779,0,0,1,2.064-.927,2.958,2.958,0,0,1,2.106.843l1.685,1.643.885-.927-1.685-1.643a4.058,4.058,0,0,0-3.033-1.179,4.248,4.248,0,0,0-2.949,1.306l-.042.042a4.157,4.157,0,0,0,.084,5.813l.253.253-2.612-.758-3.2-15.756h28.9L279.2,238.255Zm41.748,0H280.466l-12.259-60.746H256.833a17.241,17.241,0,0,1,2.233-10.49l.084-.168a18.741,18.741,0,0,0,2.4-11.543l-1.432-12.259a11.09,11.09,0,0,0,5.645,1.517,11.249,11.249,0,0,0,11-8.931h15.334v102.62Z"/><circle cx="72.698" cy="97.637" r="1.474"/><circle cx="66.547" cy="97.637" r="1.474"/><polygon points="250.977 163.481 252.199 163.775 253.758 157.583 247.355 157.33 247.312 158.594 252.157 158.762 250.977 163.481"/><path d="M266.9,85.251h0a6.024,6.024,0,0,1-4.8-2.443l-1.011.758a7.262,7.262,0,0,0,5.813,2.991h0a7.2,7.2,0,0,0,5.814-2.991l-1.011-.758A5.909,5.909,0,0,1,266.9,85.251Z"/><path d="M278.739,64.651H213.232a16.343,16.343,0,0,0-16.3,16.3v.337a16.343,16.343,0,0,0,16.3,16.3h43.812l12.343,16.893.927-16.893H278.7a16.252,16.252,0,0,0,16.3-16.3v-.337A16.253,16.253,0,0,0,278.739,64.651Zm15.039,16.64a15.031,15.031,0,0,1-15,15.04h-9.563l-.8,14.575-10.7-14.575H213.274a15.049,15.049,0,0,1-15.039-15.04v-.337a15.048,15.048,0,0,1,15.039-15.039h65.507A15.048,15.048,0,0,1,293.82,80.954v.337Z"/><path d="M266.9,70.128a11.122,11.122,0,1,0,11.122,11.121A11.111,11.111,0,0,0,266.9,70.128Zm0,20.979a9.858,9.858,0,1,1,9.858-9.858A9.87,9.87,0,0,1,266.9,91.107Z"/></svg>