<svg xmlns="http://www.w3.org/2000/svg" viewBox="0 0 300 300"><defs><style>.a{fill:#52bbef;}.b{fill:#fff;}.c{fill:#ffdb43;}.d{fill:#ff553e;}</style></defs><title>Support team_1</title><path class="a" d="M158.537,62.144H97.649a6.9,6.9,0,0,0-6.912,6.912V106.37a6.9,6.9,0,0,0,6.912,6.912h17.073a6.92,6.92,0,0,1,6.212,3.908l4.32,9.134a3.188,3.188,0,0,0,5.76,0l4.278-9.092a6.866,6.866,0,0,1,6.212-3.95h17.074a6.9,6.9,0,0,0,6.911-6.912V69.056A6.962,6.962,0,0,0,158.537,62.144Z"/><circle class="b" cx="111.883" cy="83.702" r="15.099"/><path class="c" d="M123.2,93.658a15.1,15.1,0,0,1-22.627,0c.164-.123,4.237-2.674,7.528-4.69l-1.81-10.861a4.3,4.3,0,0,1,3.5-4.9h.082a4.3,4.3,0,0,1,4.9,3.5l.411,2.386,2.592-.411a1.905,1.905,0,0,1,2.181,1.563v.041a1.906,1.906,0,0,1-1.564,2.181l-2.591.411,1.152,6.829Z"/><rect class="c" x="200.747" y="59.141" width="85.038" height="50.479"/><circle class="b" cx="248.717" cy="77.983" r="8.763"/><polygon class="a" points="233.125 71.401 209.674 76.297 209.674 84.895 233.125 89.832 233.125 71.401"/><polygon class="b" points="248.717 86.787 229.751 109.621 267.683 109.621 248.717 86.787"/><path class="b" d="M228.105,109.621V88.8l-5.224-7.816s-2.1-2.057-4.115-.206a3.227,3.227,0,0,0-.493,4.237l1.481,1.975-3.785-.781v23.367h12.136Z"/><circle class="b" cx="225.39" cy="73.088" r="3.291"/><circle class="b" cx="218.396" cy="74.445" r="3.291"/><polygon class="d" points="240.406 114.516 212.883 120.276 212.883 130.397 240.406 136.156 240.406 114.516"/><path class="a" d="M235.758,151.049l10-15.551h22.833l24.561,44.514s1.769,5.389-1.111,9.915-7.405,5.348-11.108,5.348H253.489l-8.927,22.833h-32.3l24.4-45.254h4.278l8.146-12.877Z"/><path d="M218.643,218.067l-26.33,14.646a4.217,4.217,0,0,0,2.057,7.9h24.314l3-6.788a3.615,3.615,0,0,1,3.333-2.139h.082a3.635,3.635,0,0,1,3.333,5.06l-1.646,3.867h9.051l8.722-22.38Z"/><path class="b" d="M270.645,119.083,267.765,129a8.524,8.524,0,0,1-10.573,5.8l-.165-.042a8.494,8.494,0,0,1-3.414-1.933,8.4,8.4,0,0,1-2.51-7.447l7.2-.658a2.106,2.106,0,0,0,1.892-2.263v-.041a2.077,2.077,0,0,0-2.263-1.892l-5.718.493.617-2.139-2.222-.617a1.886,1.886,0,0,1-1.316-2.3v-.041a1.948,1.948,0,0,1,2.3-1.358l2.262.576,1.029-3.579a8.431,8.431,0,0,1,4.361-5.225l11.4,12.754Z"/><path d="M271.426,116.409l-.781,2.715h0l-11.4-12.754a8.491,8.491,0,0,1,6.212-.576l.165.042A8.522,8.522,0,0,1,271.426,116.409Z"/><polygon class="d" points="137.102 128.998 126.57 165.366 92.383 165.366 90.284 172.812 131.507 172.812 144.179 128.998 137.102 128.998"/><path class="c" d="M68.727,172.812l32.953,40.4L68.274,235.346l1.029-8.557a24.04,24.04,0,0,0-3.826-16.045l-12.96-19.459H23.1A11.417,11.417,0,0,1,13.022,174.5l20.242-38.137h30.32l-10.7,24.479h30.2l3.168-5.76a7.066,7.066,0,0,1,10.861-1.893l5.965,5.266a3.734,3.734,0,0,1,.329,5.308l-.041.041a3.782,3.782,0,0,1-5.348.329l-4.238-3.662-3.538,12.3"/><path class="c" d="M60.54,203.38A24.667,24.667,0,0,0,47.992,224.9a23.356,23.356,0,0,0,.247,3.415l-18.308-28.14L43.8,191.326h8.721Z"/><path d="M67.328,105.3h0L41.615,119.124a12.805,12.805,0,0,1-.905-5.965l.741-7.9H67.328Z"/><path class="b" d="M262.746,172.812H42.273a7.138,7.138,0,0,1-6.541-10l3.991-9.092,16.332-.041-3.126,7.2h30.2l3.168-5.76a7.066,7.066,0,0,1,10.861-1.892l5.965,5.266a3.732,3.732,0,0,1,.329,5.307l-.041.041a3.782,3.782,0,0,1-5.348.329l-4.237-3.662-3.539,12.3"/><path class="b" d="M69.015,117.766v.041a2.564,2.564,0,0,1-2.551,2.551H62.515a16.188,16.188,0,0,1-4.238,4.773l-.082.082a16.4,16.4,0,0,0-6.171,9.915l-.247,1.316H44.042l.864-6.006a12.565,12.565,0,0,0-2.057-8.887l-.041-.082a13.919,13.919,0,0,1-1.234-2.3L67.287,105.3l-2.757,9.956h1.934A2.478,2.478,0,0,1,69.015,117.766Z"/><path class="a" d="M55.274,115.092a5.623,5.623,0,0,1-5.39,4.731,4.022,4.022,0,0,1-4.073-4.731,5.624,5.624,0,0,1,5.39-4.731A4.021,4.021,0,0,1,55.274,115.092Z"/><path class="d" d="M65.518,129a3.727,3.727,0,0,1-3.538,3.126A2.642,2.642,0,0,1,59.306,129a3.726,3.726,0,0,1,3.538-3.127A2.68,2.68,0,0,1,65.518,129Z"/><polygon class="d" points="78.683 228.476 88.557 240.612 124.925 216.421 101.68 213.254 78.683 228.476"/><polygon class="d" points="38.2 240.612 17.178 208.317 29.931 200.171 40.998 217.203 38.2 240.612"/><path class="b" d="M213.3,172.812l5.8-42.621a2.543,2.543,0,0,1,2.427-2.139h.041a1.814,1.814,0,0,1,1.851,2.139,2.545,2.545,0,0,1,2.428-2.139h.041a1.814,1.814,0,0,1,1.851,2.139,2.544,2.544,0,0,1,2.427-2.139h.042a1.815,1.815,0,0,1,1.851,2.139,2.543,2.543,0,0,1,2.427-2.139h.041a1.816,1.816,0,0,1,1.852,2.139l-3.456,25.219,2.839-4.4,13.329,8.927-8.146,12.877Z"/><path d="M287.718,194.617a12.16,12.16,0,0,0,5.06-4.731,11.969,11.969,0,0,0,.165-11.972L269,134.84h-5.43a9.126,9.126,0,0,0,4.854-5.719l3.662-12.589a9.029,9.029,0,0,0-.494-6.336h14.852V58.524H200.13V85.389a3.332,3.332,0,0,0-.535.288c-1.152.535-2.427,1.11-3.744,1.6-.205-2.263-.452-4.566-.781-6.87-.33-2.51-.823-5.1-2.469-7.035a7.358,7.358,0,0,0-9.791-.823,9.336,9.336,0,0,0-2.921,9.832,9.714,9.714,0,0,0,3.5,5.1A11.8,11.8,0,0,0,191.9,89.5a20.447,20.447,0,0,0,2.838-.576,124.607,124.607,0,0,1-1.4,31.8c-.33,1.893-.741,3.744-1.193,5.6a61.6,61.6,0,0,0-21.64,9.585,39.5,39.5,0,0,0-9.751,9.339,22.287,22.287,0,0,0-4.32,13.042,10.937,10.937,0,0,0,1.358,5.43,9,9,0,0,0,7.9,4.073,11.442,11.442,0,0,0,4.114-.781c4.238-1.687,7.241-5.39,9.586-8.763a92.7,92.7,0,0,0,13.741-30.856,95.923,95.923,0,0,1,19.13-2.18v5.759l5.925,1.235L212.76,172.2H132.33L145,128.339h-8.392l-10.532,36.369h-22.71a4.956,4.956,0,0,0,.494-.453l.041-.041a4.419,4.419,0,0,0-.411-6.212l-5.966-5.266a7.763,7.763,0,0,0-6.418-1.81,7.6,7.6,0,0,0-5.389,3.867l-3,5.43H53.834L64.16,136.609l-.576-.864H52.559l.123-.576a9.748,9.748,0,0,1,.37-1.481,5.063,5.063,0,0,0,1.687-.535l4.443-1.975.247.37a3.35,3.35,0,0,0,2.551,1.111A4.348,4.348,0,0,0,66.135,129a3.488,3.488,0,0,0-.741-2.716,3.352,3.352,0,0,0-2.55-1.11,4.349,4.349,0,0,0-4.156,3.661,3.809,3.809,0,0,0,.042,1.193L54.2,132a2.382,2.382,0,0,1-.7.247,15.626,15.626,0,0,1,5.1-6.665l.082-.082a16.8,16.8,0,0,0,4.2-4.649h3.579a3.169,3.169,0,0,0,3.168-3.168v-.041a3.169,3.169,0,0,0-3.168-3.168H65.353l2.757-9.956H61.445l.905-6.582a4.305,4.305,0,0,0-4.361-5.061h-.082a5.809,5.809,0,0,0-5.595,4.9l-.947,6.747H40.875l-.782,8.475a13.286,13.286,0,0,0,2.222,8.681l.041.082a11.885,11.885,0,0,1,1.933,8.475l-.781,5.472H33.222l-.534.329L12.446,174.252a11.844,11.844,0,0,0,.33,11.849,12.169,12.169,0,0,0,4.978,4.608H5v1.234H23.349v11.684l-6.542,4.155-.2.864,6.706,10.326v22.257h1.234V220.865l13.082,20.076,1.111-.247,2.592-21.722,6.3,9.668,1.11-.411a22.794,22.794,0,0,1-.246-3.333A24.187,24.187,0,0,1,60.17,204.244l-5.266,36.9,1.234.165,5.1-35.587,3.621,5.43A23.313,23.313,0,0,1,68.6,226.789l-1.028,8.557.946.576,9.915-6.582,9.874,12.136,38.178-25.384-24.6-3.373L70.043,173.43H235.8l-24.561,45.254h5.019l-24.273,13.494a4.787,4.787,0,0,0-2.345,5.431,4.682,4.682,0,0,0,4.649,3.62h24.684l3.168-7.158a3.075,3.075,0,0,1,2.756-1.81h.083a2.965,2.965,0,0,1,2.509,1.357,2.916,2.916,0,0,1,.247,2.839l-2.016,4.731h10.532l11.808-30.4,4.36,30.485,1.235-.164-4.69-32.625,4.9-12.63h24.4v45.378h1.234V195.851H295v-1.234ZM191.737,88.227a10.586,10.586,0,0,1-7.611-1.769,8.541,8.541,0,0,1-3.044-4.484,8.1,8.1,0,0,1,2.509-8.516,6.163,6.163,0,0,1,3.7-1.234,5.788,5.788,0,0,1,4.361,1.892c1.44,1.646,1.851,4.073,2.18,6.377.329,2.386.576,4.772.782,7.117A17.028,17.028,0,0,1,191.737,88.227Zm-13.371,69.24c-2.262,3.25-5.142,6.747-9.05,8.352-3.5,1.4-8.393.74-10.491-2.8a9.893,9.893,0,0,1-1.193-4.813,21.048,21.048,0,0,1,4.072-12.3,40.145,40.145,0,0,1,9.463-9.051,58.688,58.688,0,0,1,20.57-9.257A88.919,88.919,0,0,1,178.366,157.467ZM59.923,129.08a3.078,3.078,0,0,1,2.962-2.592,2.082,2.082,0,0,1,1.6.7,1.971,1.971,0,0,1,.453,1.727,3.079,3.079,0,0,1-2.962,2.592,2.024,2.024,0,0,1-2.057-2.427Zm207.266-.247a7.973,7.973,0,0,1-7.611,5.719,8.331,8.331,0,0,1-2.222-.329l-.164-.042a7.628,7.628,0,0,1-5.554-8.187l6.706-.617a2.993,2.993,0,0,0,1.851-.946,2.6,2.6,0,0,0,.617-1.975v-.041a2.689,2.689,0,0,0-2.921-2.468l-4.813.411.535-1.892-2.839-.782a1.359,1.359,0,0,1-.905-1.6,1.313,1.313,0,0,1,1.563-.906l2.839.741,1.193-4.155a8.208,8.208,0,0,1,3.62-4.649l10.82,12.1ZM248.717,86.17a8.146,8.146,0,1,1,8.146-8.145A8.164,8.164,0,0,1,248.717,86.17ZM255.423,109h-24.4l17.691-21.269,14.234,17.114A9.22,9.22,0,0,0,255.423,109Zm15.427,7.241-.452,1.646-10.08-11.273a7.875,7.875,0,0,1,2.8-.535,8.292,8.292,0,0,1,2.222.33l.164.041A7.947,7.947,0,0,1,270.85,116.244ZM201.364,59.758h83.8V109H270.892a9.008,9.008,0,0,0-5.061-3.743l-.164-.042a7.185,7.185,0,0,0-.9-.2L250.033,87.322a9.38,9.38,0,1,0-2.468,0L229.5,109h-.7V89.544l4.978,1.028V70.619l-4.69.988a3.9,3.9,0,0,0-7.406.576,3.88,3.88,0,0,0-3.209-1.687A3.933,3.933,0,0,0,214.57,74.4v.247L209.1,75.8v4.484a79.7,79.7,0,0,1-7.693,4.485V59.758Zm0,26.412a83.876,83.876,0,0,0,7.693-4.4v3.621l6.254,1.316v22.257H201.364ZM218.4,78.354a3.882,3.882,0,0,0,3.785-3,3.883,3.883,0,0,0,3.209,1.687,3.933,3.933,0,0,0,3.908-3.908v-.288l3.168-.658V89.091l-3.99-.822-4.69-7.2a3.656,3.656,0,0,0-4.978-1.152l-.042.041a3.7,3.7,0,0,0-1.686,2.427,3.768,3.768,0,0,0,.617,2.88l.617.864-8.022-1.687V76.831l4.484-.946A3.907,3.907,0,0,0,218.4,78.354Zm-2.674-3.909a2.674,2.674,0,1,1,2.674,2.674A2.669,2.669,0,0,1,215.722,74.445Zm6.994-1.357a2.674,2.674,0,1,1,2.674,2.674A2.669,2.669,0,0,1,222.716,73.088Zm-6.171,13.905,4.608.988-2.469-3.456a2.476,2.476,0,0,1-.411-1.934,2.372,2.372,0,0,1,1.111-1.6l.041-.041a2.439,2.439,0,0,1,3.332.74l4.731,7.241v20.035H216.545Zm-23.08,39c.411-1.686.741-3.373,1.07-5.1a123.6,123.6,0,0,0,1.4-32.378,43.362,43.362,0,0,0,4.156-1.728h0v23.451h54.676a10.028,10.028,0,0,0-.453,1.193l-.864,3-1.687-.453a3.2,3.2,0,0,0-.658-.082,2.536,2.536,0,0,0-.658,4.978l1.645.453-.658,2.427,6.583-.576a1.476,1.476,0,0,1,1.6,1.317v.041a1.449,1.449,0,0,1-.329,1.069,1.575,1.575,0,0,1-.987.535l-7.694.7-.082.493a9.007,9.007,0,0,0,2.674,7.982,8.261,8.261,0,0,0,2.386,1.563H245.426l-11.52,17.9,2.3-16.868,4.772.988V113.776l-28.716,6.006V123.9A99.9,99.9,0,0,0,193.465,125.994Zm20.036,3.868V120.77l26.247-5.513v20.076l-3.373-.7.617-4.4a2.38,2.38,0,0,0-.576-2.016,2.459,2.459,0,0,0-1.893-.823h-.041a3.153,3.153,0,0,0-2.263,1.029.559.559,0,0,0-.123-.165,2.456,2.456,0,0,0-1.892-.823h-.042a3.153,3.153,0,0,0-2.262,1.029.573.573,0,0,0-.124-.165,2.459,2.459,0,0,0-1.892-.822h-.041a3.152,3.152,0,0,0-2.263,1.028.566.566,0,0,0-.123-.164,2.459,2.459,0,0,0-1.893-.823h-.041a3.166,3.166,0,0,0-3.044,2.674l-.124.781Zm6.212.411a1.926,1.926,0,0,1,1.81-1.6h.041a1.266,1.266,0,0,1,.946.411,1.282,1.282,0,0,1,.288,1.029l-1.234,8.721L222.8,139l1.234-8.722a1.928,1.928,0,0,1,1.811-1.6h.041a1.268,1.268,0,0,1,.946.411,1.282,1.282,0,0,1,.288,1.029l-1.234,8.721,1.234.165,1.234-8.722a1.927,1.927,0,0,1,1.81-1.6h.042a1.268,1.268,0,0,1,.946.411,1.282,1.282,0,0,1,.288,1.029L230.2,138.83l1.234.165,1.234-8.722a1.926,1.926,0,0,1,1.81-1.6h.041a1.269,1.269,0,0,1,.947.411,1.286,1.286,0,0,1,.288,1.029l-4.115,29.785,1.235.165.617-4.361,2.427-3.785,12.3,8.228L240.448,172.2H213.994Zm-92.69,35.71,10.532-36.368h5.8l-12.342,42.621H91.066l1.81-6.253Zm-33.776-1.234.905-3.086,3.5,3.045.082.082H93.247ZM52.929,161.5h30.2l.535-.329,3.168-5.76a6.362,6.362,0,0,1,4.525-3.25,6.449,6.449,0,0,1,5.39,1.522l5.965,5.266a3.138,3.138,0,0,1,.288,4.443l-.041.041a3.171,3.171,0,0,1-2.181,1.07,3.343,3.343,0,0,1-2.3-.782l-4.237-3.661-.987.288L89.791,172.2H42.273a6.418,6.418,0,0,1-5.43-2.962,6.585,6.585,0,0,1-.535-6.171l3.826-8.763H55.109l-2.756,6.336Zm13.535-45.666a1.931,1.931,0,0,1,1.934,1.933v.041a1.932,1.932,0,0,1-1.934,1.934H62.185l-.164.288a15.655,15.655,0,0,1-3.333,3.991h-.041a5.91,5.91,0,0,1-5.1-2.962l-1.07.617a7.239,7.239,0,0,0,4.855,3.456,17,17,0,0,0-5.184,7.405,3.52,3.52,0,0,1-1.933-.658,3.358,3.358,0,0,1-1.276-3.292l1.276-8.228a6.294,6.294,0,0,0,5.759-5.266,4.916,4.916,0,0,0-.411-2.8l10.82-5.842-2.592,9.339h2.674Zm-11.643-4.526a4.618,4.618,0,0,0-2.88-1.522l.535-3.867H64.86l-10.039,5.389Zm-3.579-.329A3.393,3.393,0,0,1,54.7,115.01a5.005,5.005,0,0,1-4.772,4.2,3.391,3.391,0,0,1-3.456-4.032A4.9,4.9,0,0,1,51.242,110.978ZM53.587,98.1a4.568,4.568,0,0,1,4.361-3.826h.082a3.093,3.093,0,0,1,3.127,3.662l-.946,6.747h-7.57Zm-12.26,15.14.7-7.323h9.215l-.535,3.867a6.33,6.33,0,0,0-5.472,5.225,4.737,4.737,0,0,0,0,1.522L41.944,118.3A12.523,12.523,0,0,1,41.327,113.241Zm2.1,7.94-.041-.082a13.634,13.634,0,0,1-.946-1.687l3.168-1.728a4.778,4.778,0,0,0,.7,1.152,4.579,4.579,0,0,0,2.633,1.481L47.7,128.422a4.58,4.58,0,0,0,1.769,4.443,4.781,4.781,0,0,0,2.3.864c-.124.411-.206.823-.288,1.193l-.165.823H44.783l.782-5.266A13.321,13.321,0,0,0,43.425,121.181Zm-29.58,64.3a10.814,10.814,0,0,1-.288-10.656L33.634,137.02h29l-6.994,16.045H40.669l2.674-6.089-1.111-.494L35.2,162.568a7.748,7.748,0,0,0,7.118,10.862h22.38l-4.114,28.88-7.57-11.355-.494-.288H23.143A10.574,10.574,0,0,1,13.845,185.484Zm10.738,6.459H41.739l-17.156,10.9ZM18,208.481l5.349-3.414v11.6Zm19.789,30.362L24.583,218.6V204.326l5.184-3.291,10.614,16.292Zm9.586-13.988v1.029L30.8,200.377l13.247-8.434h8.146l7.488,11.231A25.361,25.361,0,0,0,47.375,224.855ZM88.68,239.789,79.588,228.64l22.257-14.728,21.393,2.921Zm12.1-26.7L69.056,234.071l.864-7.241a24.324,24.324,0,0,0-3.95-16.456l-4.361-6.583,4.361-30.444h2.51ZM235.387,240h-7.734l1.316-3a4.263,4.263,0,0,0-.37-4.032,4.194,4.194,0,0,0-3.538-1.892h-.082a4.2,4.2,0,0,0-3.867,2.509L218.273,240h-23.9a3.449,3.449,0,0,1-3.456-2.674,3.521,3.521,0,0,1,1.728-4.032l26.207-14.564h24.89Zm8.763-22.5H213.3l23.9-44.02h5.554l4.978,34.887Zm18.6-22.874h-9.668l-4.443,11.355-4.649-32.542h18.76V172.2H241.929l10.326-16-1.029-.659-2.3,3.58-12.3-8.228,9.5-14.77h22.134l23.573,42.416a10.665,10.665,0,0,1-.123,10.738,10.794,10.794,0,0,1-9.339,5.348Z"/><circle cx="259.249" cy="115.586" r="1.07"/><path d="M260.73,111.636a3.636,3.636,0,0,0-3.579.576l.781.988a2.47,2.47,0,0,1,3.95,1.481l1.193-.247A3.71,3.71,0,0,0,260.73,111.636Z"/><path d="M97.649,113.9h17.073a6.267,6.267,0,0,1,5.636,3.579l4.32,9.134a3.719,3.719,0,0,0,3.456,2.18,3.806,3.806,0,0,0,3.456-2.18l4.278-9.092a6.267,6.267,0,0,1,5.636-3.58h17.074a7.532,7.532,0,0,0,7.529-7.528V69.056a7.533,7.533,0,0,0-7.529-7.529H97.69a7.533,7.533,0,0,0-7.529,7.529V106.37A7.524,7.524,0,0,0,97.649,113.9ZM91.4,69.056a6.3,6.3,0,0,1,6.3-6.295h60.888a6.294,6.294,0,0,1,6.294,6.295V106.37a6.294,6.294,0,0,1-6.294,6.3H141.5a7.461,7.461,0,0,0-6.747,4.279l-4.278,9.092a2.578,2.578,0,0,1-2.3,1.481,2.425,2.425,0,0,1-2.3-1.481l-4.32-9.134a7.506,7.506,0,0,0-6.747-4.278H97.731a6.3,6.3,0,0,1-6.295-6.3V69.056Z"/><path d="M111.883,99.377A15.716,15.716,0,1,0,96.168,83.661,15.741,15.741,0,0,0,111.883,99.377Zm0-1.235a14.376,14.376,0,0,1-10.367-4.4l7.241-4.525-1.852-11.273a3.628,3.628,0,0,1,2.962-4.155h.083a3.628,3.628,0,0,1,4.155,2.962l.494,3,3.209-.534a1.527,1.527,0,0,1,.946.2,1.369,1.369,0,0,1,.535.864,1.537,1.537,0,0,1-.206.947,1.388,1.388,0,0,1-.823.534l-3.209.535,1.275,7.735,5.925,3.7A14.378,14.378,0,0,1,111.883,98.142Zm0-28.922A14.5,14.5,0,0,1,126.365,83.7a14.255,14.255,0,0,1-3.292,9.133l-5.636-3.5-.987-5.965,1.975-.329a2.537,2.537,0,0,0,1.645-1.029,2.44,2.44,0,0,0,.412-1.933,2.565,2.565,0,0,0-2.921-2.1l-1.975.33-.288-1.77a4.875,4.875,0,0,0-5.595-3.99h-.082a4.875,4.875,0,0,0-3.991,5.595l1.728,10.45-6.706,4.2a14.345,14.345,0,0,1-3.291-9.133A14.556,14.556,0,0,1,111.883,69.22Z"/><rect x="132.33" y="76.543" width="26.741" height="1.234"/><rect x="132.33" y="89.585" width="26.741" height="1.234"/><circle cx="59.264" cy="115.092" r="1.07"/></svg>