<svg xmlns="http://www.w3.org/2000/svg" viewBox="0 0 300 300"><defs><style>.a{fill:#fff;}.b{fill:#9ef2eb;}.c{fill:#52bbef;}.d{fill:#ffdb43;}.e{fill:#ffc5ff;}</style></defs><title>Virtual reality VR</title><polygon points="241.165 179.686 156.565 179.686 156.565 120.355 243.064 120.355 241.165 179.686"/><polygon class="a" points="294.757 68.621 242.032 119.942 244.468 182.576 294.757 231.544 294.757 68.621"/><polygon class="b" points="156.565 120.355 85.302 68.621 85.302 231.544 156.565 179.686 156.565 120.355"/><polygon class="a" points="156.565 120.355 85.302 68.621 294.757 68.621 246.78 115.69 242.032 120.438 156.565 120.355"/><polygon class="c" points="85.302 231.544 156.565 179.686 241.165 179.686 241.165 179.686 294.757 231.544 85.302 231.544"/><path class="d" d="M107.391,161.478a44.529,44.529,0,1,1-89.058.041v-.206a44.537,44.537,0,0,1,88.522-6.813A48.286,48.286,0,0,1,107.391,161.478Z"/><path class="b" d="M221.842,184.806l-13.5,5.656a14.807,14.807,0,0,0-.826-2.849c-.041-.082-.041-.123-.083-.206l-1.569-3.881-.041-.124h0l6.028-10.817,8.3,8.381Z"/><polygon class="d" points="254.047 143.394 247.523 170.974 227.375 164.368 231.627 149.381 222.214 145.912 226.755 134.228 254.047 143.394"/><path class="b" d="M247.11,170.851l-1.692,9.083a12.208,12.208,0,0,1-20.562,5.78l-4.748-4.789-8.3-8.382-5.9,10.859-.041.083-.042-.124-12.551-7.349a19.622,19.622,0,0,0,1.9-2.56l8.051-13.625a11.764,11.764,0,0,1,19.24-1.446l4.914,5.987Z"/><path class="a" d="M255.285,132.989h0a10.114,10.114,0,0,1-7.6,3.427l-1.4,4.335-4.5-1.527,1.28-3.923a10.182,10.182,0,0,1-5.615-9.124,9.563,9.563,0,0,1,.165-1.9s.991-4,3.344-5.821a11.309,11.309,0,0,1,5.822-2.436Z"/><circle cx="259.951" cy="116.268" r="5.202"/><circle cx="267.218" cy="123.988" r="5.202"/><circle cx="277.292" cy="120.438" r="5.202"/><path class="c" d="M91.743,195.376h0a44.528,44.528,0,0,1-58.134-.289l16.846-33.774H37.449V144.922H54.5l8.217,10.9,8.381-10.9H88.151v16.391H74.65Z"/><path class="e" d="M81.421,116.846v.165a8.384,8.384,0,0,1-5.739,7.968,8.516,8.516,0,0,1-2.684.455H66.351a3.6,3.6,0,0,0-3.51-2.725,3.548,3.548,0,0,0-3.468,2.725H52.726a8.43,8.43,0,0,1-8.423-8.423v-.165a8.4,8.4,0,0,1,8.423-8.423H73A8.431,8.431,0,0,1,81.421,116.846Z"/><path class="a" d="M65.732,140.586v4.336H71.1l-8.3,10.9-7.927-10.9h5.161v-4.336a13.149,13.149,0,0,1-10.281-12.84,11.755,11.755,0,0,1,.289-2.725,8.572,8.572,0,0,0,2.725.454h6.647a3.583,3.583,0,0,1,3.469-2.725,3.631,3.631,0,0,1,3.509,2.725H73.04a8.13,8.13,0,0,0,2.683-.454l.042.082a14,14,0,0,1,.247,2.643A13.192,13.192,0,0,1,65.732,140.586Z"/><path class="d" d="M231.916,207.267l-28.034,13.625-.991-6.359a15.948,15.948,0,0,1,2.725-11.725l.082-.124a15.965,15.965,0,0,0,2.643-12.222l13.5-5.656Z"/><path class="d" d="M205.863,183.526l-5.656,10.363-5.946,10.942-.082.165-27.828-14.038,4.459-4.624a15.858,15.858,0,0,1,10.982-4.914h.166a16.067,16.067,0,0,0,11.354-5.326l12.551,7.349Z"/><rect class="e" x="237.316" y="116.773" width="6.689" height="10.405" transform="translate(29.591 290.038) rotate(-65.406)"/><path d="M257.845,126.218a10.081,10.081,0,0,1-2.6,6.771L246.78,116.02a6.139,6.139,0,0,1,.867-.041A10.2,10.2,0,0,1,257.845,126.218Z"/><path class="a" d="M226.755,134.228l-4.541,11.684-8.712-3.22a9.144,9.144,0,0,1-5.822-7.184l-1.321-9.455-9.455-4.707a3.131,3.131,0,0,1-1.569-4.129l.041-.041a3.131,3.131,0,0,1,4.129-1.569l2.643,1.321-.826-9.7,7.473.413-2.271-14.657a2.8,2.8,0,0,1,2.312-3.22h.041a2.872,2.872,0,0,1,3.345,2.394l5.656,39.1Z"/><path class="a" d="M122.5,117.837a3.366,3.366,0,0,1-3.345,3.385,3.237,3.237,0,0,1-2.353-.991l-9.538,33.155L106.9,154.5a10.943,10.943,0,0,1-10.157,6.813H88.275V144.922h4.954l3.8-12.057L100,123.452l-5.079-5.368a4.188,4.188,0,0,1-.041-5.656l.041-.083a4.154,4.154,0,0,1,6.152.124l2.808,3.221,6.069-16.062a3.435,3.435,0,0,1,4.335-2.023l.083.042a3.388,3.388,0,0,1,2.064,4.335l-3.261,9.29a3.357,3.357,0,0,1,2.477,5.161l.33.371a3.347,3.347,0,0,1,3.221-2.353A3.385,3.385,0,0,1,122.5,117.837Z"/><path class="a" d="M28.614,144.922h0l17.753-24.237a2.707,2.707,0,0,0-.578-3.8l-.041-.041a2.707,2.707,0,0,0-3.8.578h0a2.709,2.709,0,0,0-.578-3.8l-.042-.041a2.708,2.708,0,0,0-3.8.578,2.71,2.71,0,0,0-.578-3.8l-.042-.041a2.708,2.708,0,0,0-3.8.578l-4.789,6.482-1.28-4.376a2.738,2.738,0,0,0-3.386-1.858h-.041a2.737,2.737,0,0,0-1.858,3.385l2.477,8.423L6.813,146.738A9.166,9.166,0,0,0,14.2,161.313H37.49V144.922Z"/><path d="M68.58,130.388l1.528,1.693.908-.826-3.963-4.335-.909.826,1.569,1.734A7.04,7.04,0,0,1,62.8,131.5a6.867,6.867,0,0,1-5.037-2.147l-.867.867a8.243,8.243,0,0,0,5.945,2.519A8.373,8.373,0,0,0,68.58,130.388Z"/><path d="M84.683,68v53.963c-1.074-.578-2.147-1.156-3.262-1.651a8.706,8.706,0,0,0,.619-3.3v-.165A9.039,9.039,0,0,0,73,107.8H52.726a9.047,9.047,0,0,0-8.96,7.886h-.124c-.206.041-.371.082-.536.123a2.879,2.879,0,0,0-.042-.578,3.393,3.393,0,0,0-1.321-2.188l-.041-.041a3.317,3.317,0,0,0-2.477-.619c-.207.041-.372.082-.537.123a3.344,3.344,0,0,0-1.363-2.725l-.041-.041a3.349,3.349,0,0,0-4.666.7l-4,5.45-.95-3.179a3.365,3.365,0,0,0-4.129-2.271h-.041a3.364,3.364,0,0,0-2.271,4.129l2.395,8.092L6.4,146.2a9.793,9.793,0,0,0,7.886,15.566H17.8a45.136,45.136,0,0,0,67.011,39.059V232H295.5V68ZM271.8,123.988a4.583,4.583,0,1,1-4.583-4.583A4.6,4.6,0,0,1,271.8,123.988Zm-11.85-3.179a4.583,4.583,0,1,1,4.583-4.583A4.6,4.6,0,0,1,259.951,120.809Zm-2.725,5.409a9.667,9.667,0,0,1-1.858,5.657l-7.638-15.236A9.568,9.568,0,0,1,257.226,126.218Zm-24.608,81.09-6.689-14.946h8.176l9.207,14.905H232.618Zm-28.241,12.675-.867-5.532a15.243,15.243,0,0,1,2.643-11.272l.082-.124a16.585,16.585,0,0,0,2.849-12.221l12.469-5.244,9.579,21.388Zm-1.61-12.675h-3.055V196.16l2.064-3.8h6.234a15.544,15.544,0,0,1-2.766,9.991l-.082.124A17.031,17.031,0,0,0,202.767,207.308Zm-7.391-86.334a3.987,3.987,0,0,0,1.239.95l9.166,4.542,1.28,9.124a9.661,9.661,0,0,0,6.193,7.68l17.547,6.482-3.757,13.295-4.129-5.078a12.384,12.384,0,0,0-20.231,1.527l-8.051,13.625a15.549,15.549,0,0,1-6.523,6.028H157.185V120.933h38.191Zm14-13.707-2.23-14.327a2.225,2.225,0,0,1,1.817-2.519H209a2.218,2.218,0,0,1,1.693.372,2.19,2.19,0,0,1,.909,1.486l2.229,15.359Zm4.666,1.61,3.261,22.5.042.372,8.587,2.89-4.087,10.487-8.134-3.014a8.445,8.445,0,0,1-5.409-6.689l-1.981-13.955a3.983,3.983,0,0,0,2.394-1.4,3.8,3.8,0,0,0,.867-3.014l-.454-3.922-1.238.165.454,3.922a2.76,2.76,0,0,1-2.56,3.056H205.7a2.754,2.754,0,0,1-2.931-2.478l-.867-9.868Zm31.915,12.552-2.271,4.954-8.34-3.8,2.271-4.955Zm-9.042,3.22a9.73,9.73,0,0,0-.124,1.569,10.78,10.78,0,0,0,5.492,9.414l-.95,2.849-22.915-7.721-1.4-9.827h17.672l-.991,2.188Zm-35.26-6.771a4,4,0,0,0,3.468,3.592l.5,3.468-8.423-4.17a2.582,2.582,0,0,1-1.321-1.4,2.443,2.443,0,0,1,.082-1.94l.042-.042a2.527,2.527,0,0,1,3.3-1.28l2.353,1.157Zm30.966,72.089.7,1.156h-7.969l-3.261-7.308,2.312,2.353A12.812,12.812,0,0,0,232.618,189.967Zm-13.006-8.629,1.4,3.138L208.8,189.637a18.325,18.325,0,0,0-.785-2.436l-1.486-3.634,5.409-9.95Zm-13.831,3.633,1.073,2.684a14.888,14.888,0,0,1,.95,3.468H202.4Zm-11.85,19.158L167.383,190.71l3.881-4.046a15.515,15.515,0,0,1,10.57-4.748H182a16.5,16.5,0,0,0,11.437-5.161l11.726,6.73Zm-9.5-23.7a12.667,12.667,0,0,1-2.519.289h-.165a16.7,16.7,0,0,0-11.437,5.12l-5.037,5.244.083.041h-2.89l8.216-10.694Zm-16.557,11.933,10.157,5.119-3.385,9.786H150.124l11.437-14.9Zm11.231,5.7,15.318,7.721,4-7.349v8.877H175.888Zm56.441-5.7h18.084l15.318,14.905H244.757Zm-.744-1.239-.7-1.156a14.452,14.452,0,0,0,2.931-.454,12.836,12.836,0,0,0,7.638-5.9l7.721,7.514ZM244.8,179.81A11.559,11.559,0,0,1,225.31,185.3l-13.625-13.749-5.945,10.942-11.479-6.606a16.956,16.956,0,0,0,1.446-2.065l8.051-13.625a11.137,11.137,0,0,1,18.208-1.4l5,6.111,19.777,6.524Zm-16.68-15.855,4.252-14.987-9.331-3.427,4.088-10.529,26.177,8.795-6.235,26.383Zm14.409-25.062,1.28-3.881-.454-.247a9.625,9.625,0,0,1-4.087-3.923,6.575,6.575,0,0,0,2.188.372,7.258,7.258,0,0,0,3.22-.785l-.578-1.073a5.691,5.691,0,0,1-2.642.661,5.467,5.467,0,0,1-2.89-.826,10.109,10.109,0,0,1-.455-2.932c0-.33.042-.66.042-1.032l6.193,2.849,3.3-7.184-5.409-2.477a9.962,9.962,0,0,1,4.253-1.652l8.092,16.185a9.608,9.608,0,0,1-6.853,2.931h-.455l-1.362,4.212Zm-1.651-21.139L237,115.979l-1.734,3.757H216.846l-4-27.7a3.277,3.277,0,0,0-1.4-2.312,3.349,3.349,0,0,0-2.642-.578h-.041a3.439,3.439,0,0,0-2.808,3.923l2.188,14.038-7.473-.578.826,9.331-1.693-.826a3.735,3.735,0,0,0-4.954,1.858l-.042.041a3.67,3.67,0,0,0-.124,2.808h-37.9L87.2,69.24H293.229l-47.564,46.326A11.016,11.016,0,0,0,240.876,117.754Zm-84.1,62.675h12.386l-8.216,10.694H141.991ZM140.3,192.362h19.694l-11.436,14.905h-28.82Zm-22.254,16.185h29.562L130.43,230.925H87.2Zm31.131,0H174.2l-7.762,22.378H132Zm26.342,0h22.956v22.378H167.755Zm24.195,0h2.766a16.165,16.165,0,0,0-.165,6.152l1.114,7.184,16.516-8.052,4.913,17.135H199.712Zm21.346,4.706,9.7-4.706H244.1l13.791,22.378H226.136Zm24.483-4.706h24.691l23,22.378h-33.9Zm-.33-26.095A11.312,11.312,0,0,0,246,180.1l8.753-37.077-7.763-2.6,1.115-3.385a10.852,10.852,0,0,0,10.364-10.818,11.029,11.029,0,0,0-1.115-4.789,5.505,5.505,0,0,0,2.6.619,5.741,5.741,0,0,0,1.9-.33,5.835,5.835,0,0,0,5.368,8.092,5.763,5.763,0,0,0,5.78-5.45,5.819,5.819,0,1,0,4.294-9.744,5.762,5.762,0,0,0-5.78,5.45,5.865,5.865,0,0,0-4.294-1.9,5.747,5.747,0,0,0-1.9.33,5.824,5.824,0,1,0-11.189-2.271,5.542,5.542,0,0,0,.207,1.445,10.885,10.885,0,0,0-6.689-2.353h0l46.49-45.211V230.1Zm27.539-62.014a4.583,4.583,0,1,1,4.583,4.583A4.6,4.6,0,0,1,272.75,120.438ZM96.285,132.989,92.734,144.3H66.351v-3.22a13.876,13.876,0,0,0,10.281-13.336,15.092,15.092,0,0,0-.207-2.354,9.079,9.079,0,0,0,4.459-3.963A44.556,44.556,0,0,1,96.285,132.989Zm12.675-10.446.95-.825-5.368-6.194,5.905-15.689A2.84,2.84,0,0,1,114,98.183l.083.042a2.808,2.808,0,0,1,1.693,3.55l-3.1,8.836a3.964,3.964,0,1,0,2.477,7.143h0a4.036,4.036,0,0,0,.909,2.56l-9.455,32.824a10.393,10.393,0,0,1-9.951,7.473H88.812V145.458H93.6l6.978-22.254-5.285-5.574a3.466,3.466,0,0,1,0-4.789l.041-.083a3.384,3.384,0,0,1,2.643-1.115,3.511,3.511,0,0,1,2.6,1.2Zm7.432-4.706a2.725,2.725,0,1,1,2.725,2.725A2.722,2.722,0,0,1,116.392,117.837Zm-3.633-5.946a2.725,2.725,0,1,1-2.725,2.725A2.723,2.723,0,0,1,112.759,111.891Zm-5.987,49.587A43.787,43.787,0,0,1,91.95,194.343L75.765,161.891H96.739a11.64,11.64,0,0,0,9.785-5.409C106.648,158.134,106.772,159.827,106.772,161.478ZM29.811,144.3l15.813-21.593a9.1,9.1,0,0,0,3.634,2.725,15.079,15.079,0,0,0-.207,2.353,13.876,13.876,0,0,0,10.281,13.336v3.221h-4.5Zm30.8,1.239v-5.45l-.5-.124a12.58,12.58,0,0,1-9.785-12.221,9.973,9.973,0,0,1,.165-1.941,10.377,10.377,0,0,0,2.271.289H59.91l.124-.454a3,3,0,0,1,2.89-2.271,2.955,2.955,0,0,1,2.89,2.271l.124.454h7.143a7.836,7.836,0,0,0,2.229-.289,15.312,15.312,0,0,1,.166,1.941,12.589,12.589,0,0,1-9.786,12.221l-.5.124v5.45h4.789l-7.225,9.248-6.978-9.248Zm-7.886-36.5H73a7.825,7.825,0,0,1,7.8,7.8v.165a7.824,7.824,0,0,1-7.8,7.8H66.805a4.263,4.263,0,0,0-3.964-2.725,4.167,4.167,0,0,0-3.922,2.725H52.726a7.878,7.878,0,0,1-6.317-3.179l.454-.619a3.32,3.32,0,0,0,.619-2.478,3.4,3.4,0,0,0-1.321-2.188l-.041-.041a3.493,3.493,0,0,0-1.115-.537A7.8,7.8,0,0,1,52.726,109.042ZM6.607,156.028a8.409,8.409,0,0,1,.743-8.918l17.589-24.03-2.56-8.712a2.08,2.08,0,0,1,1.4-2.6h.041a2.079,2.079,0,0,1,2.6,1.4l1.652,5.574,5.491-7.473a2.07,2.07,0,0,1,2.932-.454l.041.041a2.07,2.07,0,0,1,.454,2.931l-5.7,7.8.991.743,5.7-7.8a2.069,2.069,0,0,1,1.362-.825,2.137,2.137,0,0,1,1.569.371l.042.042a2.066,2.066,0,0,1,.825,1.362,2.137,2.137,0,0,1-.371,1.569l-5.7,7.8.991.743,5.7-7.8a2.074,2.074,0,0,1,1.362-.826,2.142,2.142,0,0,1,1.569.372l.042.041a2.071,2.071,0,0,1,.825,1.363,2.137,2.137,0,0,1-.371,1.569l-18.5,25.227h9.5v15.153H14.2A8.447,8.447,0,0,1,6.607,156.028Zm12.345,5.9H49.464L33.4,194.054A43.8,43.8,0,0,1,18.952,161.932ZM34.394,194.88l17.093-34.186H38.11V145.541H54.253L62.8,156.854l8.712-11.313H87.656v15.153H73.783l17.258,34.517a43.889,43.889,0,0,1-56.647-.331Zm73.617-33.4a43.313,43.313,0,0,0-.537-6.936,7.506,7.506,0,0,0,.33-1.032l9.29-32.288a3.707,3.707,0,0,0,2.023.537,3.964,3.964,0,1,0-2.4-7.143h0a4,4,0,0,0-2.807-3.8l3.014-8.63a4.035,4.035,0,0,0-2.436-5.119l-.083-.042a4.091,4.091,0,0,0-5.161,2.354l-5.7,15.07-2.105-2.436a4.715,4.715,0,0,0-7.06-.124l-.042.083a4.771,4.771,0,0,0,0,6.482l4.831,5.12-2.519,8.009a45.63,45.63,0,0,0-10.776-8.918V69.86l70.025,50.825V179.48L85.921,230.347V200.289A45.2,45.2,0,0,0,108.011,161.478Z"/><path d="M27.829,89.472a5.038,5.038,0,1,0-5.037-5.038A5.058,5.058,0,0,0,27.829,89.472Zm0-8.836a3.8,3.8,0,1,1-3.8,3.8A3.789,3.789,0,0,1,27.829,80.636Z"/><path d="M120.191,183.2a5.038,5.038,0,1,0-5.038-5.038A5.058,5.058,0,0,0,120.191,183.2Zm0-8.836a3.8,3.8,0,1,1-3.8,3.8A3.789,3.789,0,0,1,120.191,174.36Z"/><polygon points="165.731 82.287 164.493 82.287 164.493 89.224 157.515 89.224 157.515 90.463 164.493 90.463 164.493 97.44 165.731 97.44 165.731 90.463 172.668 90.463 172.668 89.224 165.731 89.224 165.731 82.287"/></svg>