<svg xmlns="http://www.w3.org/2000/svg" xmlns:xlink="http://www.w3.org/1999/xlink" width="100%" height="100%" version="1.1" viewBox="0 0 300 300" xml:space="preserve" style="fill-rule:evenodd;clip-rule:evenodd;stroke-linejoin:round;stroke-miterlimit:2"><rect width="300" height="300" x="0" y="0" style="fill:none"/><g id="_2a25bcbe-bc46-473e-b896-26ad92a6b871"><g><path d="M0,31.984L32,31.984L32,-0.016L0,-0.016L0,31.984ZM2,1.984L30,1.984L30,29.984L2,29.984L2,1.984Z" transform="matrix(1.14653,0,0,1.14653,40,131.674) matrix(8.17688,0,0,8.17688,-34.766,-114.747)" style="fill:#233bff;fill-rule:nonzero"/></g><g><path d="M6.439,26.41L15.398,26.41L10.918,18.669L6.439,26.41ZM16.602,22.91L25.561,22.91L21.082,15.169L16.602,22.91Z" transform="matrix(1.14653,0,0,1.14653,40,131.674) matrix(8.17688,0,0,8.17688,-34.766,-115.619)" style="fill:#488eff;fill-rule:nonzero"/></g><g><g><path d="M6.439,26.41L15.398,26.41L10.918,18.669L6.439,26.41Z" transform="matrix(1.14653,0,0,1.14653,40,131.674) matrix(8.17688,0,0,8.17688,-54.2628,-320.754) matrix(1,0,0,1,2.39834,25.0627)" style="fill:#233bff;fill-rule:nonzero"/></g><g transform="matrix(1.14653,0,0,1.14653,40,131.674) matrix(8.17688,0,0,8.17688,-54.2628,-320.754) matrix(1.12417,0,0,1.0292,-59.7362,-109.9)"><ellipse cx="65.064" cy="144.9" rx="3.093" ry="3.437" style="fill:#233bff"/></g></g><g><g><path d="M6.439,26.41L15.398,26.41L10.918,18.669L6.439,26.41Z" transform="matrix(1.14653,0,0,1.14653,40,131.674) matrix(8.17688,0,0,8.17688,29.0047,-348.593) matrix(1,0,0,1,2.39834,25.0627)" style="fill:#233bff;fill-rule:nonzero"/></g><g transform="matrix(1.14653,0,0,1.14653,40,131.674) matrix(8.17688,0,0,8.17688,29.0047,-348.593) matrix(1.12417,0,0,1.0292,-59.7362,-109.9)"><ellipse cx="65.064" cy="144.9" rx="3.093" ry="3.437" style="fill:#233bff"/></g></g></g></svg>