<svg id="Layer_2" data-name="Layer 2" xmlns="http://www.w3.org/2000/svg" xmlns:xlink="http://www.w3.org/1999/xlink" viewBox="0 0 400 300"><defs><linearGradient id="linear-gradient" x1="193.33" y1="234.16" x2="218.8" y2="198.65" gradientUnits="userSpaceOnUse"><stop offset="0" stop-color="#fbae17" stop-opacity="0"/><stop offset="1" stop-color="#c1272d"/></linearGradient><linearGradient id="linear-gradient-2" x1="118.56" y1="252.89" x2="151.7" y2="224.79" gradientUnits="userSpaceOnUse"><stop offset="0" stop-color="#fff" stop-opacity="0"/><stop offset="1" stop-color="#ed1c24"/></linearGradient></defs><path d="M336.4,193.47,171.62,288.82a25.78,25.78,0,0,1-25.75,0L54.26,236.24a10.29,10.29,0,0,1-.08-17.8l171.75-100.6a10.29,10.29,0,0,1,10.35,0l100.11,57.84A10.29,10.29,0,0,1,336.4,193.47Z" fill="#ef7929"/><path d="M164,217.78c5,1.53,4.52,6.69,9.66,7.72,3.15.63,4,7.92,7.22,8.16L203,250.55l65.83-41L207.15,174.1,154,208.22C162.3,214.28,154.3,214.82,164,217.78Z" opacity="0.32" fill="url(#linear-gradient)"/><path d="M115.61,257.68c5,1.53,10,3,15.17,4.08a77.7,77.7,0,0,0,9.5,1.09l5.34-3.62,35.23-25.56-31.22-16.54L87.46,245.66C95.72,251.72,105.93,254.72,115.61,257.68Z" opacity="0.32" fill="url(#linear-gradient-2)"/><path d="M151.17,202.56c-3.72-2.6-8.1-4-12.83-3-5,1.11-9.4,4.28-14.54,5.05-.81.12-4.05-.09-4.55.38-14.29,13.52,25.66,12.08,25.66,12.08,3.88-3.17,7.53-6.3,11.38-9.51C155.12,205,153.16,203.95,151.17,202.56Z" fill="#f8997c"/><path d="M132.37,222.16,130.95,263c-.05,1.55,2.35,1.55,2.4,0l1.42-40.8C134.83,220.61,132.42,220.61,132.37,222.16Z" fill="#844040"/><path d="M162.32,244q-10.91-10.68-20.85-22.29c-1-1.18-2.7.53-1.7,1.7q9.93,11.6,20.85,22.29C161.73,246.77,163.43,245.08,162.32,244Z" fill="#844040"/><path d="M124,218.38q-8.47,16-16,32.47c-.64,1.4,1.44,2.62,2.08,1.21q7.48-16.48,16-32.47C126.83,218.23,124.75,217,124,218.38Z" fill="#844040"/><path d="M155.62,206.37a19.35,19.35,0,0,1-9.68,7c-5.46,1.64-13.4.86-16.27-4.76-5.22-10.23-.32-23-5.83-33a10.1,10.1,0,0,0-6.39-5.18c-3.57-.77-6,1.88-7.32,5C107.8,181,107.88,188,108,193.9a99.42,99.42,0,0,0,1.06,14.36s3.34,19.94,29.38,14.59a39.53,39.53,0,0,0,12.79-4.67,17.56,17.56,0,0,0,5.22-4.53C158,211.38,157,208.67,155.62,206.37Z" fill="#68e1fd"/><path d="M173.64,225.51s-.21,3.64.91,4.66,7.2-1.81,8.82-.81-6.1,8.3-8.82,8.7-5.24-3.47-5.24-3.47v5.49l-3.08,1.75L164,240.49l.67-15Z" fill="#8787d1"/><path d="M163.23,228.19c3.24,2.79,6.72,2.7,10.74,1,2.89-5.08,6.29-36-.93-41-7.76-5.31-19.89-4.36-21.92-3.78l-29.72,4.87c-2.28,3.88,3.76,24.2,17,24.77s21.62-4.4,21.62-4.4Z" fill="#124577"/><path d="M151.68,143.27a7.05,7.05,0,0,0-3.33,3l0,.1c-2.09,1.71-2.42,4.83-4.64,6.37,0,.06-2.09,1.53-2.11,1.59s.2-2.86.19-2.84v0c-.72,2-1.43,4-2,6a1.24,1.24,0,0,0,.32.14l-.23.11-.2.12a.67.67,0,0,1-.4.45,1.58,1.58,0,0,0,2.21,1.86l6.72-3.28a18.74,18.74,0,0,0,2.63-.77c0-.7.11-1.4.18-2.1a5.89,5.89,0,0,0,.45-5.57.63.63,0,0,1,.12-.12l0-.07a5.12,5.12,0,0,0,2.11-3.34C153.71,144,152.75,142.77,151.68,143.27Z" fill="#f7931e"/><path d="M143.13,149.62s7.66,4.76,8.46,8.72c0,0-5.38,11.69-5,12.15,6.08,7.93-12.15-5-12.15-5S138.11,154.37,143.13,149.62Z" fill="#68e1fd"/><path d="M160.57,152.52c.63,5.29-6.12,12.66-9,14.08-3.9,1.95-5.42-14.27-22.56-14.2-1.11,0-6.67-2.37-9.59,4.94s0,28.26,1.95,31.91c1.72,3.22,13.15,11,29.48,2.68l.24-7.55s9.63-.21,14.74-7.29c4.76-6.61,7.58-16.53,7.13-21.4C169.13,154,164.36,151.28,160.57,152.52Z" fill="#68e1fd"/><path d="M143.13,149.62s7.66,4.76,8.46,8.72c0,0-5.38,11.69-5,12.15,6.08,7.93-12.15-5-12.15-5S138.11,154.37,143.13,149.62Z" fill="#8787d1"/><path d="M174.44,146.07a1.62,1.62,0,0,0-2.17-1.15,1.83,1.83,0,0,0-.66-1,1.64,1.64,0,0,0-1.85-.08,1.89,1.89,0,0,0-.47.38l-.1-.11a1.71,1.71,0,0,0-1.86-.51,1.6,1.6,0,0,0-.51.37,25.77,25.77,0,0,0-.72-2.76c-.27-.91-.72-2.58-1.84-2.78-.73-.13-1.07.4-1.22,1a2,2,0,0,0-.08,1.36,14.62,14.62,0,0,0,.27,1.83c.1.86.19,1.72.27,2.58v0a.57.57,0,0,0-.4.16,3.12,3.12,0,0,0-1.1,3.52,26.92,26.92,0,0,0,2,5.21.59.59,0,0,0,.82.27l.09.32a.63.63,0,0,0,1.24-.07l0-.12a.6.6,0,0,0,.21.11l.05.7c0,.64,1,.64,1.21.11l.06.51c.08.71,1.2.63,1.24-.07l0-.57a.72.72,0,0,0,.54-.28.69.69,0,0,0,.44.26.59.59,0,0,0,.61.08l0,.15a.7.7,0,0,0,.83.47c0,.07,0,.14,0,.21,0,.8,1.27.91,1.25.1q0-2.41-.13-4.82a.6.6,0,0,0,.18-.14C173.95,150,175.07,147.89,174.44,146.07Zm-6.72-1.21a.41.41,0,0,1,.35-.05.71.71,0,0,0-.08.15h-.38A.52.52,0,0,1,167.71,144.86Z" fill="#f7931e"/><path d="M138.12,133.1c0,.18,1.06,10.89-1.34,13.25s-8.77,1.39-10.35-1.19-3.52-6-1.83-10S137.83,130.47,138.12,133.1Z" fill="#f7931e"/><path d="M134.69,140.08a1.07,1.07,0,0,0-.18-1.14,5.18,5.18,0,0,0-2.9-1.8,2.17,2.17,0,0,0-2.54,1.37c-.73,2.43,3.21,3.15,4.82,3.35a1.08,1.08,0,0,0,1.07-1.07A1,1,0,0,0,134.69,140.08Z" fill="#ffe8e6"/><path d="M160.57,152.52c.63,5.29-6.12,12.66-9,14.08-3.9,1.95-5.42-14.27-22.56-14.2-1.11,0-6.67-2.37-9.59,4.94s0,28.26,1.95,31.91c1.72,3.22,13.15,11,29.48,2.68l.24-7.55s9.63-.21,14.74-7.29c4.76-6.61,7.58-16.53,7.13-21.4C169.13,154,164.36,151.28,160.57,152.52Z" fill="#8787d1"/><path d="M159.23,182.54a21.12,21.12,0,0,1-24.74-8.21c-.34-.52-1.19,0-.84.49a22.09,22.09,0,0,0,25.84,8.66C160.07,183.27,159.82,182.32,159.23,182.54Z" fill="#fff"/><path d="M149.59,164.8a15.7,15.7,0,0,0-3.8-5.36c-1.87-1.7-4.18-2.79-6.13-4.38-.39-.32-1,.24-.56.56,1.84,1.5,4,2.55,5.81,4.1a15.12,15.12,0,0,1,4,5.48C149.11,165.66,149.8,165.26,149.59,164.8Z" fill="#fff"/><path d="M138.36,134.61l-3.41,1.79s2.64,10,3.43,12.68-2.38,6.34-12.68,6.61-9.78-15.32-7.4-21.14,9.51-8.46,15.32-6.87A6,6,0,0,1,138.36,134.61Z" fill="#b24d16"/><path d="M156.77,208.71a1.64,1.64,0,0,0-2.74-.48,18.42,18.42,0,0,1-8.09,5.15c-5.46,1.64-13.4.86-16.27-4.76-5.2-10.19-.35-22.94-5.77-32.88a11,11,0,0,0-4.07-4.33c-4.89-2.82-8.15.27-9.71,4C107.8,181,107.88,188,108,193.9a99.42,99.42,0,0,0,1.06,14.36s3.34,19.94,29.38,14.59a39.53,39.53,0,0,0,12.79-4.67,17.56,17.56,0,0,0,5.22-4.53A5.12,5.12,0,0,0,156.77,208.71Z" fill="#68e1fd"/><polyline points="210.91 9.74 204.24 12.69 210.65 15.51 212.19 12.2" fill="#ef7f6c"/><path d="M271.68,205.69,216.27,173.4a14.77,14.77,0,0,1-7.34-12.76L207.15,14c0-3.85,6-5.81,9.29-3.85L273.76,44a9.5,9.5,0,0,1,4.67,8.18V201.81A4.49,4.49,0,0,1,271.68,205.69Z" fill="#ef7f6c"/><polyline points="276.12 205.73 268.87 209.56 269.71 204.51 274.74 203.6" fill="#ef7f6c"/><path d="M264.73,209.37l-55.41-32.29A14.77,14.77,0,0,1,202,164.31V16.24a3.92,3.92,0,0,1,5.92-3.38l58.91,34.79a9.5,9.5,0,0,1,4.67,8.18V205.49A4.49,4.49,0,0,1,264.73,209.37Z" fill="#f4f4f4"/><polygon points="267.96 64.87 204.84 28.67 204.84 158.21 267.96 194.7 267.96 64.87" fill="#fff"/><ellipse cx="230.52" cy="181.84" rx="2.91" ry="3.93" transform="translate(-35.92 58.5) rotate(-13.43)" fill="#bababc"/><path d="M228.16,34.9h0a1.41,1.41,0,0,0,.71,1.22l12.2,7a1.41,1.41,0,0,0,2.11-1.22v-.3a1.41,1.41,0,0,0-.73-1.23l-12.2-6.71A1.41,1.41,0,0,0,228.16,34.9Z" fill="#ccc"/><ellipse cx="222.56" cy="31.17" rx="1.38" ry="1.88" transform="translate(3.01 79.17) rotate(-20.31)" fill="#ccc"/><ellipse cx="252.43" cy="167.1" rx="6.1" ry="8.2" transform="translate(-38.75 84.3) rotate(-17.63)" fill="#f2f2f2"/><ellipse cx="252.08" cy="165.08" rx="2.2" ry="3.2" transform="translate(-29.32 57.34) rotate(-12.27)" fill="#c4b7b3"/><path d="M256.4,174.12s-1.32-5.78-4.65-6.48-4.15,3.52-4.15,3.52a7.35,7.35,0,0,0,4.4,3.74C255.33,176,256.4,174.12,256.4,174.12Z" fill="#c4b7b3"/><ellipse cx="232.91" cy="155.74" rx="6.61" ry="8.88" transform="translate(-36.23 77.85) rotate(-17.63)" fill="#ea7554"/><path d="M235.66,151.67c-.21-.06-2.07,1.11-2,1.5s1,1.71.86,1.95-2,2.6-3.06,2.75a13.68,13.68,0,0,1-2-1.52,2.16,2.16,0,0,0-1.35,1.61c0,.43,1.73,1.88,2.8,2.25,1.39.48,5.67-4.27,6.18-5.51S235.66,151.67,235.66,151.67Z" fill="#fff"/><path d="M219.87,144.19v8.19a1.7,1.7,0,0,1-2.51,1.49l-7.57-4.16a1.7,1.7,0,0,1-.88-1.49v-8.38a1.7,1.7,0,0,1,2.54-1.47l7.57,4.35A1.7,1.7,0,0,1,219.87,144.19Z" fill="#ffac99"/><ellipse cx="213.86" cy="146.6" rx="2.36" ry="3.25" transform="translate(-40.52 96.4) rotate(-23.27)" fill="#fff"/><path d="M204.1,137.73s2.9-12.86,9-13.57,40.75,16.17,48.54,25.95c4.9,6.15,5.57,12,5.3,15.25-.11,1.32.27,27.79.27,27.79L204.1,156.65Z" fill="#68e1fd"/><path d="M255,114.11c-.68-8.46-1.54-17.92-6.54-24.28-6.72-8.54-20.25-11.32-29.27-3.62-1.91,1.63-2.8,4.26-3.35,6.95a38.6,38.6,0,0,0-.63,9.39,71,71,0,0,0,3.42,18.17c1.88,6,28.81,20.73,34.16,14.58C256.65,130.84,255.44,119.8,255,114.11Z" fill="#f7a500"/><path d="M243.14,117.48v19s-8.66,3.09-15,0l0-19" fill="#ffd3c0"/><path d="M228.14,128.34l0,4.11a24.4,24.4,0,0,0,15-7.28v-7.7Z" fill="#f7b29a"/><path d="M242.32,107.83s2.34-11-3-13.31c-4.9-2.06-8.29,4.79-11,5A7.73,7.73,0,0,1,225,101,6.2,6.2,0,0,1,220,99.73c.52.39.09,5.64.13,6.58a67.73,67.73,0,0,0,.68,7.43c.66,4.24,1.67,9.29,4.67,12.56,5.26,5.72,13,2.42,15.68-4.05.38-.94.67-1.91,1.09-2.84l1.52-3.37s4.25-2,4.25-5.38S245.65,107,242.32,107.83Z" fill="#ffd3c0"/><path d="M244.16,107l-5.08,1.89a5.47,5.47,0,0,0-5-4.45c-2.56,0-4.7,2.16-5.17,5-.63-.07-1.26-.16-1.88-.27,0-.07,0-.14,0-.22,0-3-2.1-5.48-4.69-5.48s-4.69,2.45-4.69,5.48,2.1,5.48,4.69,5.48a4.92,4.92,0,0,0,4.57-4.25c.63.11,1.27.2,1.91.26,0,.06,0,.13,0,.19,0,3.44,2.36,6.23,5.27,6.23s5.27-2.79,5.27-6.23a7.39,7.39,0,0,0,0-.78l5.17-1.92C245,107.73,244.76,106.76,244.16,107Z" fill="none" stroke="#000" stroke-miterlimit="10"/><path d="M227.09,118.55h0a1.32,1.32,0,0,1-.47.09,1.31,1.31,0,0,1-1-2.11c.11-.24.24-.47.3-.62l1.1-2.84c.23-.6-.73-.86-1-.27l-1.19,3.06a4.39,4.39,0,0,0-.55,2c.17,1.36,1.65,1.63,2.76,1.68C227.73,119.58,227.73,118.58,227.09,118.55Z" fill="#e2886f"/><path d="M228.2,120.45l5.83-2.1s1.7,4.94-.63,5.79S228.2,120.45,228.2,120.45Z" fill="#fff"/></svg>