<svg id="Layer_1" data-name="Layer 1" xmlns="http://www.w3.org/2000/svg" viewBox="0 0 700 550"><title>navigating on maps</title><path d="M422.02719,455.4084a8.65842,8.65842,0,0,1,.82984-3.41992,1.815,1.815,0,0,1,1.01025-.95008,2.18667,2.18667,0,0,1,.62988-.1c.24.04.48.06006.72.12a14.53012,14.53012,0,0,1,3.02,1.55994c1.05.61011,2.11011,1.24,3.27,1.81006a10.1653,10.1653,0,0,0,3.88013,1.01,8.77418,8.77418,0,0,0,3.8999-.86011c.06006-.02991.12989-.05994.18994-.08984C434.04721,457.7884,427.41709,459.81843,422.02719,455.4084Z"/><path d="M464.55722,415.6584c-1.05-.37-2.41015-1.36-4-3.64-3.97021-5.69006-6.58008.35-6.58008.35-5.52,8.53-11.3999,3.84009-12.57006,3.25a1.28614,1.28614,0,0,0-.74-.07,4.00809,4.00809,0,0,0-.96.23c-1.98.68006-4.8,2.73-4.96,5.61a10.88309,10.88309,0,0,1-1.17993,3.84009,9.32668,9.32668,0,0,1,2.90991-1.08008,12.49467,12.49467,0,0,1,3.06006-.25,9.50765,9.50765,0,0,1,3.08008.63,4.10889,4.10889,0,0,1,2.41992,2.11,8.25032,8.25032,0,0,0-2.8-.58c-.91992-.06994-1.84985-.12-2.8-.16-.94-.04-1.89991-.1-2.86988-.18994a19.26318,19.26318,0,0,1-3-.48,42.94392,42.94392,0,0,1-3.13012,5.40991,6.8443,6.8443,0,0,1,2.73-1.21,8.94145,8.94145,0,0,1,3.01-.15,7.90112,7.90112,0,0,1,2.92016.91,5.72249,5.72249,0,0,1,2.23,2.07995c-1.03-.2-1.88012-.47-2.77-.6-.88012-.16-1.74-.31006-2.6101-.41-1.76-.22-3.51-.29992-5.53-.6-.8899,1.34009-1.58008,2.24-1.58008,2.24-.83985.9-1.58985,1.76-2.2898,2.6001a9.10943,9.10943,0,0,1,3-.74012,11.067,11.067,0,0,1,3.09009.18006,8.53174,8.53174,0,0,1,2.96,1.1499,4.6869,4.6869,0,0,1,2.05982,2.44006,13.30817,13.30817,0,0,0-2.71-1.01c-.87989-.25-1.79-.43-2.7-.62a42.15792,42.15792,0,0,1-5.71-1.39h-.01c-.03.04-.06006.07-.09008.11-.29981,6.1001-.45,11.02-.45,11.02a17.30148,17.30148,0,0,1-6.45,4.99,4.99384,4.99384,0,0,0,1.15992,2.54,12.7123,12.7123,0,0,0,1.33007,1.24,6.98735,6.98735,0,0,1-.07007-3.8,2.88361,2.88361,0,0,1,1.34009-1.74,2.96049,2.96049,0,0,1,1.11988-.36987,6.715,6.715,0,0,1,1.10009.03991c.33985.06995.68994.14,1.02.23l.92993.38c.6001.26,1.1399.54,1.69.81006,1.10009.56994,2.14013,1.18994,3.19018,1.65991a7.91977,7.91977,0,0,0,6.38989.5,43.87894,43.87894,0,0,0,6.54-3.02,31.34618,31.34618,0,0,0,6.34009-8.91992c4.08984-8.42993,11.84985-12.68994,15.38989-18.23.07984-.12012.14991-.23.22-.3501A4.66636,4.66636,0,0,0,464.55722,415.6584Zm-8.93017,6.57007a26.20914,26.20914,0,0,1-1.5,3.16992,26.90068,26.90068,0,0,1-1.86988,2.97,17.23383,17.23383,0,0,1-2.38012,2.70007,17.63765,17.63765,0,0,1,1-3.45007,30.82729,30.82729,0,0,1,1.5-3.17993,27.9135,27.9135,0,0,1,1.87011-2.97,17.18334,17.18334,0,0,1,2.37989-2.70008A17.50387,17.50387,0,0,1,455.62705,422.22847Z"/><path d="M428.59726,213.14839a6.3305,6.3305,0,0,0-2.73-2.09l-.01025-.01a1.33133,1.33133,0,0,1-.25-.16,17.55953,17.55953,0,0,0,3.45019,5.72c.02979-.10986.04981-.21.06983-.32A4.08112,4.08112,0,0,0,428.59726,213.14839Zm0,0a6.3305,6.3305,0,0,0-2.73-2.09l-.01025-.01a1.33133,1.33133,0,0,1-.25-.16,17.55953,17.55953,0,0,0,3.45019,5.72c.02979-.10986.04981-.21.06983-.32A4.08112,4.08112,0,0,0,428.59726,213.14839Zm0,0a6.3305,6.3305,0,0,0-2.73-2.09l-.01025-.01a1.33133,1.33133,0,0,1-.25-.16,17.55953,17.55953,0,0,0,3.45019,5.72c.02979-.10986.04981-.21.06983-.32A4.08112,4.08112,0,0,0,428.59726,213.14839Zm0,0a6.3305,6.3305,0,0,0-2.73-2.09l-.01025-.01a1.33133,1.33133,0,0,1-.25-.16,17.55953,17.55953,0,0,0,3.45019,5.72c.02979-.10986.04981-.21.06983-.32A4.08112,4.08112,0,0,0,428.59726,213.14839Zm0,0a6.3305,6.3305,0,0,0-2.73-2.09l-.01025-.01a1.33133,1.33133,0,0,1-.25-.16,17.55953,17.55953,0,0,0,3.45019,5.72c.02979-.10986.04981-.21.06983-.32A4.08112,4.08112,0,0,0,428.59726,213.14839Zm0,0a6.3305,6.3305,0,0,0-2.73-2.09l-.01025-.01a1.33133,1.33133,0,0,1-.25-.16,17.55953,17.55953,0,0,0,3.45019,5.72c.02979-.10986.04981-.21.06983-.32A4.08112,4.08112,0,0,0,428.59726,213.14839Zm0,0a6.3305,6.3305,0,0,0-2.73-2.09l-.01025-.01a1.33133,1.33133,0,0,1-.25-.16,17.55953,17.55953,0,0,0,3.45019,5.72c.02979-.10986.04981-.21.06983-.32A4.08112,4.08112,0,0,0,428.59726,213.14839Zm0,0a6.3305,6.3305,0,0,0-2.73-2.09l-.01025-.01a1.33133,1.33133,0,0,1-.25-.16,17.55953,17.55953,0,0,0,3.45019,5.72c.02979-.10986.04981-.21.06983-.32A4.08112,4.08112,0,0,0,428.59726,213.14839Zm42.80982-1.65991c-1.49-21.45008-2.37989-30.98011-10.42994-43.78-8.04-12.81006-35.77-8.68006-35.77-8.68006-13.06982,18.43006-21.35009,5.76-21.35009,5.76-4.18994,2.20008-6.18994-1.38-6.18994-1.38-23.69971,10-23.06006,22.46-23.06006,26.92993s-1.48975,20.55005-1.48975,20.55005c-3.87012,20.8501,0,46.77,0,48.55,0,1.79,4.77,24.72,4.77,24.72,2.96973,3.28,9.23-.29,9.23-.29q-1.74024-11.025-2.51025-22.16992c-.27-3.71-.40967-7.43006-.5-11.16-.06006-3.72.04-7.49.26025-11.20007a106.60751,106.60751,0,0,0,.02979-11.0199c-.10987-3.69006-.41016-7.38-.67969-11.06994-.30029-3.69007-.66016-7.38013-1.04-11.07007-.3501-3.7-.81006-7.38-1.22022-11.07007a217.68618,217.68618,0,0,1,3.8003,21.98,130.40427,130.40427,0,0,1,1.09961,22.37012c-.50977,7.36-.37989,14.75-.18994,22.15991q.375,11.115.95019,22.25c39.30982,9.82007,72.96973-4.77,72.96973-4.77l-2.67993-29.18994a8.41958,8.41958,0,0,1-3.46.37,31.31321,31.31321,0,0,1-3.46-.5,61.4063,61.4063,0,0,1-6.68994-1.88,136.05879,136.05879,0,0,1-12.85009-5.1499q-6.26991-2.89509-12.37989-6.1001l-1.53-.78-.76-.38989-.79-.46009a7.78305,7.78305,0,0,1-2.65991-2.53991,5.95043,5.95043,0,0,1-.8501-3.52,7.49659,7.49659,0,0,1,1.05-3.32007,6.51835,6.51835,0,0,0,.61011,6.29c1.27979,1.74,3.48975,2.34,5.59985,3.32007,4.22,1.84985,8.36011,3.79992,12.54,5.67993,4.15992,1.90991,8.34009,3.77,12.55982,5.51,2.12011.85,4.24023,1.68994,6.40014,2.38989a34.00238,34.00238,0,0,0,3.29.90015,9.15133,9.15133,0,0,0,3.37989.17993C471.99716,248.41841,472.89707,232.92842,471.40708,211.48848Zm-56.96-24a11.53716,11.53716,0,0,1,2.90014-2.14014,11.2991,11.2991,0,0,1-2.20019,2.8501,11.7137,11.7137,0,0,1-2.89991,2.13989A11.47732,11.47732,0,0,1,414.44712,187.48848Zm-10.47974-2.21009a11.35008,11.35008,0,0,1,1.01953-3.43,11.28833,11.28833,0,0,1-.02979,3.58008,11.54955,11.54955,0,0,1-1.00976,3.41992A11.523,11.523,0,0,1,403.96738,185.27839Zm-9.34033.65a12.67542,12.67542,0,0,1,1.41992,3.52,14.58643,14.58643,0,0,1-3.71973-6.55A12.9078,12.9078,0,0,1,394.62705,185.92842Zm54.04,33.63c-2.49-1.02-5.01-1.9801-7.52979-2.93005q-5.25-1.96491-10.53027-3.87a6.06668,6.06668,0,0,1,.37011,3.92,12.09693,12.09693,0,0,1-1.82006,3.95,19.06417,19.06417,0,0,1-2.73,3.18005,31.12517,31.12517,0,0,1-6.32984,5.21,6.75386,6.75386,0,0,1-2.03.75,2.56417,2.56417,0,0,1-1.16015-.06994,1.70282,1.70282,0,0,1-.92994-.73,3.84741,3.84741,0,0,1-.51-2.06006,9.7911,9.7911,0,0,1,.24-2.02,9.51361,9.51361,0,0,0,.06006,2,3.5943,3.5943,0,0,0,.64991,1.76,1.37059,1.37059,0,0,0,1.51.36,5.4969,5.4969,0,0,0,1.65991-.83,17.98525,17.98525,0,0,0,1.54-1.18994c-8.27-4.86011-8.56006-.59009-14.64991-1.3501-6.21972-.79-7.2998-13.85-7.2998-13.85a19.79606,19.79606,0,0,1-5.06006-1.03,7.53561,7.53561,0,0,1-3.70019-2.46c-1.14014-1.44006-1.43018-3.06994,4.29-2.17l.72022.12012L391.607,195.10835h18.04l3.89013,11.52a3.88023,3.88023,0,0,0-.06006-3.12988l-.96972-2.88013s8.25976-3.28,11.53979,6.25c.41992,1.23.84009,2.32007,1.23,3.27a1.02222,1.02222,0,0,1,.09009-.41992,1.00073,1.00073,0,0,1,1.23975-.51c5.1101,1.82995,10.16015,3.78,15.12011,5.97q2.49024,1.095,4.93995,2.3c-.09986-2.49-.49-4.89014-.81983-7.32007l-1.12012-7.54c-.35009-2.52-.71-5.04-.98-7.58-.29-2.53991-.54-5.09-.64013-7.68a59.13129,59.13129,0,0,1,2.17016,7.41c.59009,2.5,1.04,5.03,1.42993,7.57a75.48481,75.48481,0,0,1,.7,7.68,25.6207,25.6207,0,0,1-.65992,7.5c.78.38,1.56006.75,2.33008,1.15a54.147,54.147,0,0,1,6.99,4.15991C453.64707,221.60835,451.16709,220.55842,448.66709,219.55842Zm-22.79981-8.5-.01025-.01a1.33133,1.33133,0,0,1-.25-.16,17.55953,17.55953,0,0,0,3.45019,5.72c.02979-.10986.04981-.21.06983-.32a4.08112,4.08112,0,0,0-.52979-3.14A6.3305,6.3305,0,0,0,425.86728,211.05842Zm2.73,2.09a6.3305,6.3305,0,0,0-2.73-2.09l-.01025-.01a1.33133,1.33133,0,0,1-.25-.16,17.55953,17.55953,0,0,0,3.45019,5.72c.02979-.10986.04981-.21.06983-.32A4.08112,4.08112,0,0,0,428.59726,213.14839Zm0,0a6.3305,6.3305,0,0,0-2.73-2.09l-.01025-.01a1.33133,1.33133,0,0,1-.25-.16,17.55953,17.55953,0,0,0,3.45019,5.72c.02979-.10986.04981-.21.06983-.32A4.08112,4.08112,0,0,0,428.59726,213.14839Zm0,0a6.3305,6.3305,0,0,0-2.73-2.09l-.01025-.01a1.33133,1.33133,0,0,1-.25-.16,17.55953,17.55953,0,0,0,3.45019,5.72c.02979-.10986.04981-.21.06983-.32A4.08112,4.08112,0,0,0,428.59726,213.14839Zm0,0a6.3305,6.3305,0,0,0-2.73-2.09l-.01025-.01a1.33133,1.33133,0,0,1-.25-.16,17.55953,17.55953,0,0,0,3.45019,5.72c.02979-.10986.04981-.21.06983-.32A4.08112,4.08112,0,0,0,428.59726,213.14839Zm0,0a6.3305,6.3305,0,0,0-2.73-2.09l-.01025-.01a1.33133,1.33133,0,0,1-.25-.16,17.55953,17.55953,0,0,0,3.45019,5.72c.02979-.10986.04981-.21.06983-.32A4.08112,4.08112,0,0,0,428.59726,213.14839Zm0,0a6.3305,6.3305,0,0,0-2.73-2.09l-.01025-.01a1.33133,1.33133,0,0,1-.25-.16,17.55953,17.55953,0,0,0,3.45019,5.72c.02979-.10986.04981-.21.06983-.32A4.08112,4.08112,0,0,0,428.59726,213.14839Z"/><path d="M391.13641,138.36633a104.65966,104.65966,0,0,0,2.0852,13.34583,38.13594,38.13594,0,0,0,2.02759,6.2959,12.348,12.348,0,0,0,3.58569,5.06225,5.09109,5.09109,0,0,0,5.41089.55274,42.27654,42.27654,0,0,0,5.73145-3.29395,26.86821,26.86821,0,0,0,2.59814-2.03491,7.90548,7.90548,0,0,0,1.949-2.48706,8.60823,8.60823,0,0,0,.90161-3.10559c.08838-1.1178.17456-2.26038.28271-3.38941.10327,1.13538.20532,2.25733.27173,3.40369a8.76458,8.76458,0,0,1-2.48877,6.51587,24.17621,24.17621,0,0,1-2.58325,2.34985,36.411,36.411,0,0,1-5.86133,3.75745,7.43493,7.43493,0,0,1-3.77905.73779,6.768,6.768,0,0,1-3.63281-1.40783,13.89769,13.89769,0,0,1-4.12745-5.93067,33.55523,33.55523,0,0,1-1.80957-6.71509A55.5428,55.5428,0,0,1,391.13641,138.36633Z"/><path d="M402.412,202.62665a1.86265,1.86265,0,0,0,0-3.72307,1.86265,1.86265,0,0,0,0,3.72307Z"/><path d="M415.70866,142.61844s1.4455-6.77791,4.42052-4.90207a3.70509,3.70509,0,0,1,1.62784,2.9984c.10678,2.284.101,6.48627-1.35728,6.81032,0,0,3.24553,8.00565,3.56122-12.82237a15.41128,15.41128,0,0,0-.14524-2.3909c-.5176-3.64957-2.54658-13.26908-9.44737-11.81628,0,0-10.648-7.81847-20.17908,2.904a41.98921,41.98921,0,0,1-3.3756,3.27631,6.09122,6.09122,0,0,0-2.209,4.65526v.07A15.54969,15.54969,0,0,1,386.819,138.636l-1.26727,2.4109s3.872,2.5584,8.63755-7.65619c0,0,2.01046-5.52351,7.29723-2.84289,0,0,6.85047-5.13785,9.53108-.22339,0,0,.764,1.1039,1.64057,2.43446a12.20022,12.20022,0,0,1,1.95977,5.70244Z"/><path d="M421.65984,149.03088a6.09432,6.09432,0,0,0,.24756,2.63135,17.73272,17.73272,0,0,0,.917,2.47449c.3545.81372.76294,1.60925,1.16651,2.41858.41015.80725.84253,1.60779,1.21167,2.47412a12.68116,12.68116,0,0,1-1.87647-2.06543c-.28857-.36755-.51367-.77844-.7727-1.16858-.22559-.41064-.44458-.82654-.64282-1.25427a9.45258,9.45258,0,0,1-.76758-2.73816A4.03356,4.03356,0,0,1,421.65984,149.03088Z"/><path d="M391.13372,143.77124a4.25921,4.25921,0,0,1,1.9939-1.30322,6.86968,6.86968,0,0,1,2.38818-.33765,8.2137,8.2137,0,0,1,2.34595.445,11.50923,11.50923,0,0,1,1.08911.4635,10.22016,10.22016,0,0,1,.99707.63708c-.40088-.032-.77783-.10547-1.15332-.17151l-1.11841-.17114a20.64755,20.64755,0,0,0-2.19433-.2041A10.9209,10.9209,0,0,0,391.13372,143.77124Z"/><path d="M401.4865,143.42847a7.95245,7.95245,0,0,1,2.3667-1.177,8.42,8.42,0,0,1,2.65088-.42443,6.054,6.054,0,0,1,2.67261.61657,4.18793,4.18793,0,0,1,1.84082,1.95411,7.16332,7.16332,0,0,0-2.14893-1.23707,8.2773,8.2773,0,0,0-2.37231-.33422,15.59136,15.59136,0,0,0-2.46875.18261C403.195,143.12842,402.35638,143.27539,401.4865,143.42847Z"/><path d="M395.604,148.02509a1.5009,1.5009,0,0,0,0-3,1.5009,1.5009,0,0,0,0,3Z"/><path d="M403.64589,148.02509a1.5009,1.5009,0,0,0,0-3,1.5009,1.5009,0,0,0,0,3Z"/><path d="M396.05071,150.42908a2.63923,2.63923,0,0,0,.44092,1.13379,1.02534,1.02534,0,0,0,.79639.31286,8.82979,8.82979,0,0,0,1.19116-.064,9.05639,9.05639,0,0,1,1.36914-.06677,3.57112,3.57112,0,0,1-2.62256,1.12829,2.259,2.259,0,0,1-.83447-.24365,1.38375,1.38375,0,0,1-.58984-.70911A1.56976,1.56976,0,0,1,396.05071,150.42908Z"/><path d="M395.98284,154.785a7.24432,7.24432,0,0,0,1.51831,1.69019,2.71707,2.71707,0,0,0,1.86328.55835,5.45946,5.45946,0,0,0,2.01587-.64331c.32007-.198.675-.35266,1.00464-.56043.33228-.20507.666-.415,1.03735-.598a11.09074,11.09074,0,0,1-.72534.97717,9.12271,9.12271,0,0,1-.89819.84,4.51642,4.51642,0,0,1-2.36865.98193,3.048,3.048,0,0,1-2.45459-.98291A3.89859,3.89859,0,0,1,395.98284,154.785Z"/><path d="M403.7575,212.64172c.51025,1.4159.821,2.81067,1.19189,4.17994.17115.68762.37769,1.35534.59937,2.01391a5.15075,5.15075,0,0,0,1.00122,1.848,3.088,3.088,0,0,1-1.70361-1.508,8.25475,8.25475,0,0,1-.863-2.0979A10.48244,10.48244,0,0,1,403.7575,212.64172Z"/><path d="M399.17815,211.7854a6.62758,6.62758,0,0,1,2.59717.74609,6.553,6.553,0,0,1,2.14844,1.63916,6.5544,6.5544,0,0,1-2.59717-.74621A6.62508,6.62508,0,0,1,399.17815,211.7854Z"/><path d="M400.01116,216.66272a5.50505,5.50505,0,0,1,2.45532.05286,5.44523,5.44523,0,0,1,2.231,1.02673,5.44339,5.44339,0,0,1-2.45532-.05286A5.50544,5.50544,0,0,1,400.01116,216.66272Z"/><path d="M401.33318,220.68359a5.50245,5.50245,0,0,1,2.43579.30933,5.44241,5.44241,0,0,1,2.11084,1.25439,5.44391,5.44391,0,0,1-2.436-.30932A5.50335,5.50335,0,0,1,401.33318,220.68359Z"/><path d="M388.11687,284.07971l2.41919,21.1897q1.19788,10.59411,2.53711,21.16821c.88868,7.04859,1.77759,14.09717,2.84888,21.11206.53638,3.50635,1.10474,7.00757,1.77295,10.47962.33618,1.73413.70142,3.4635,1.10937,5.16589a21.47172,21.47172,0,0,0,1.57007,4.7959l.031.05859a.84571.84571,0,0,1,.09326.48841c-.70972,6.51184-1.35083,13.03051-2.1206,19.53613L396.142,407.59839c-.751,6.50757-1.50268,13.01489-2.18481,19.52954-.69409,6.51331-1.42578,13.02283-2.04908,19.54333l-.14331-.302a47.33455,47.33455,0,0,0,8.38306,4.09363,34.53818,34.53818,0,0,0,9.03491,2.15869,20.52056,20.52056,0,0,0,9.06421-1.064,16.01249,16.01249,0,0,0,7.27564-5.29883l-.135.36121c.18823-5.613.27514-11.23279.60205-16.844.15381-2.80652.32641-5.61291.56592-8.42212.11694-1.40478.25537-2.81006.42993-4.22021a22.67041,22.67041,0,0,1,.8518-4.33643.83287.83287,0,0,1,.93238-.55737l.07983.014a34.481,34.481,0,0,0,7.51441.42431,29.32726,29.32726,0,0,0,7.39038-1.30029,20.69464,20.69464,0,0,0,6.53491-3.42981,18.9431,18.9431,0,0,0,4.73535-5.59253l-.03418.93958c-6.18115-12.92151-12.19849-25.92029-18.30591-38.87659a1.01934,1.01934,0,0,1-.063-.687c1.75611-6.78711,3.51929-13.58863,5.17725-20.40906,1.678-6.81763,3.24585-13.66089,4.77319-20.51245,1.54322-6.84851,2.96875-13.72315,4.22-20.62842a188.47918,188.47918,0,0,0,2.93531-20.83789.1.1,0,0,1,.1997.00928,185.33594,185.33594,0,0,1-2.22094,20.9823c-1.08741,6.95154-2.34961,13.87414-3.73,20.771-1.38013,6.89734-2.88477,13.76831-4.45337,20.62378-1.584,6.8534-3.1687,13.70142-4.94971,20.5149l-.06323-.68665c6.1062,12.95691,12.302,25.87146,18.33423,38.86316l.00732.01587a1.01248,1.01248,0,0,1-.0415.92407,20.96555,20.96555,0,0,1-5.29493,6.14783,22.64209,22.64209,0,0,1-7.17944,3.69934,31.18962,31.18962,0,0,1-7.88452,1.32409,35.57349,35.57349,0,0,1-7.96582-.52966l1.01172-.54333a22.1077,22.1077,0,0,0-.8003,3.90112c-.18994,1.37146-.34692,2.75684-.48291,4.14612-.27734,2.77807-.4895,5.57031-.6831,8.36377-.18555,2.79468-.37573,5.59045-.5083,8.38928l-.4353,8.39661-.00123.01965a.57554.57554,0,0,1-.13427.342,17.25731,17.25731,0,0,1-7.86084,5.48535,21.43412,21.43412,0,0,1-9.489.94092,37.87315,37.87315,0,0,1-9.20483-2.31641,47.93319,47.93319,0,0,1-8.48706-4.22046.31876.31876,0,0,1-.14331-.30236c.71655-6.511,1.32471-13.03321,1.9707-19.55152.658-6.51709,1.2461-13.04126,1.83521-19.56543l1.78393-19.57068c.57032-6.52612,1.269-13.03894,1.89942-19.55883l.12426.54675a22.24331,22.24331,0,0,1-1.81494-5.28467c-.44458-1.74866-.769-3.50805-1.10254-5.2644-.64379-3.51538-1.18261-7.038-1.68994-10.56348q-1.4989-10.57874-2.63647-21.18762-1.11878-10.61261-2.07154-21.23718c-.59716-7.087-1.18945-14.17334-1.647-21.27112a.10014.10014,0,0,1,.19946-.01746Z"/><path d="M408.98821,287.09937q-.92394,13.09752-2.22729,26.15112c-.84131,8.70556-1.79907,17.39783-2.779,26.08752-1.01734,8.68543-2.05933,17.36792-3.21729,26.03711q-1.69446,13.00874-3.77466,25.973.9203-13.09789,2.22437-26.15148c.84179-8.70557,1.79931-17.39783,2.782-26.08716,1.01953-8.68518,2.06177-17.36768,3.22-26.03675Q406.91217,300.06421,408.98821,287.09937Z"/><path d="M426.53387,433.75891c.16552-6.8407.62109-13.67053,1.29272-20.47815.6416-6.81164,1.53833-13.59863,2.60669-20.36169.53784-3.38062,1.17163-6.74756,1.80982-10.11231.73828-3.347,1.38378-6.71228,2.29126-10.02295a95.638,95.638,0,0,1,6.79687-19.37634q-.79029,2.44867-1.62744,4.8551l-1.35132,4.92847c-.822,3.30444-1.63037,6.6073-2.2981,9.9469q-2.08812,9.99187-3.6477,20.09888c-1.10254,6.724-2.08008,13.47229-3.03638,20.2279Z"/><path d="M399.62493,296.07593a22.47815,22.47815,0,0,1,4.18872.68139,37.9882,37.9882,0,0,1,3.99829,1.21961,36.35134,36.35134,0,0,1,3.84082,1.6582,19.25029,19.25029,0,0,1,3.60913,2.24878,27.63661,27.63661,0,0,1-4.15869-.788,41.51516,41.51516,0,0,1-3.97973-1.242,40.87531,40.87531,0,0,1-3.83911-1.63476A23.40276,23.40276,0,0,1,399.62493,296.07593Z"/><path d="M433.13274,380.00952a52.17032,52.17032,0,0,1,4.36548,7.41382,79.03336,79.03336,0,0,1,3.39453,7.899c.49244,1.34656.93433,2.71179,1.37842,4.0747.38086,1.38416.82764,2.74646,1.13111,4.15174a53.38136,53.38136,0,0,1,1.42749,8.48535c-1.05835-2.68079-1.95-5.37219-2.92286-8.03821-.95556-2.6687-1.89648-5.33581-2.89062-7.98474-.95044-2.66479-1.96216-5.30774-2.94458-7.96924C435.07781,385.3833,434.08465,382.72314,433.13274,380.00952Z"/><path d="M421.65984,450.49878c-1.55249-14.16357-.81054-28.48169.41675-42.65479a342.11372,342.11372,0,0,1,6.51392-42.23266q2.36682-10.42823,5.343-20.70032c1.98779-6.82153,3.85131-13.67309,5.75146-20.51672,1.87085-6.85071,3.64966-13.72718,5.25171-20.6438a170.8349,170.8349,0,0,0,3.87085-20.93421,94.9911,94.9911,0,0,1-1.0874,10.61731c-.51075,3.52491-1.16773,7.02405-1.825,10.52369-1.41211,6.97827-3.02735,13.91162-4.7212,20.82385-1.6687,6.91907-3.59106,13.77295-5.4895,20.62744q-2.8689,10.24439-5.144,20.63733-2.35986,10.36816-4.07153,20.87c-.57715,3.49634-1.04566,7.0138-1.54908,10.52527-.43359,3.52014-.92846,7.03369-1.31982,10.55933-.81958,7.04724-1.43823,14.11951-1.79785,21.207A182.93884,182.93884,0,0,0,421.65984,450.49878Z"/><path d="M377.88226,284.16211c.62939,3.45239,1.168,6.8999,1.75024,10.33227.5769,3.42957,1.17651,6.85694,1.96338,10.18787.20947.82568.42554,1.65186.69653,2.436a9.76461,9.76461,0,0,0,.92627,2.14294,1.8762,1.8762,0,0,0,.26416.34033c.10864.11768.324.29248.47388.43689l.96606.90857a24.29625,24.29625,0,0,0,1.83911,1.67554,2.59559,2.59559,0,0,0,.39039.25159c.03515.01745.09448.0393.04785.028a.5896.5896,0,0,0-.249.08093c-.2019.16675-.09692.181-.09228.02832a2.50762,2.50762,0,0,0,.03-.4873,14.59369,14.59369,0,0,0-.29077-2.45117c-.33057-1.67994-.70679-3.38086-1.11939-5.07337l-.01123-.04626a.46154.46154,0,0,1,.823-.37879,4.12271,4.12271,0,0,0,1.90259,1.61267,1.04806,1.04806,0,0,0,1.07592-.33068,2.7719,2.7719,0,0,0,.41431-.52442l.30689-.62317-.178.68274a3.02044,3.02044,0,0,1-.32691.64868,1.4451,1.4451,0,0,1-1.37231.66468,3.05489,3.05489,0,0,1-1.42481-.57581,6.819,6.819,0,0,1-1.13037-.97876l.81153-.42493c.61181,1.64466,1.20776,3.2992,1.66919,5.0199a15.92011,15.92011,0,0,1,.533,2.7135,3.97418,3.97418,0,0,1-.01684.81812,1.59733,1.59733,0,0,1-.64526,1.16772,1.30669,1.30669,0,0,1-.87061.21338,1.27,1.27,0,0,1-.32178-.05859,1.80039,1.80039,0,0,1-.25732-.08679,4.10214,4.10214,0,0,1-.73731-.40833,20.51709,20.51709,0,0,1-2.1123-1.755l-.95532-.87024c-.16724-.15528-.29761-.24976-.49536-.44251a3.7357,3.7357,0,0,1-.56226-.6698,16.609,16.609,0,0,1-1.90308-5.2323c-.40356-1.736-.696-3.47766-.9292-5.223-.25146-1.74231-.42041-3.491-.56665-5.23877A97.54062,97.54062,0,0,1,377.88226,284.16211Z"/><path d="M385.49212,305.11438a22.89162,22.89162,0,0,1-1.09937-2.60571,24.65057,24.65057,0,0,1-.7832-2.689,16.19767,16.19767,0,0,1-.36621-5.53088,15.953,15.953,0,0,0,.84814,5.39844,24.05208,24.05208,0,0,0,.99634,2.5393,22.08534,22.08534,0,0,0,1.26807,2.38391l.00879.014a.50084.50084,0,0,1-.85034.52942C385.50652,305.14124,385.49871,305.12744,385.49212,305.11438Z"/><path d="M434.97552,285.73254a55.44377,55.44377,0,0,0,4.12964,9.08289,24.24715,24.24715,0,0,0,2.89941,3.85535,25.86085,25.86085,0,0,0,3.83105,3.21313,10.63517,10.63517,0,0,1-4.86328-2.04236,14.31392,14.31392,0,0,1-3.5769-3.98974,17.9755,17.9755,0,0,1-1.99951-4.90625A14.90758,14.90758,0,0,1,434.97552,285.73254Z"/><path d="M364.8873,489.58833a10.58,10.58,0,0,1,2.08008-3.15991,2.06355,2.06355,0,0,1,1.35986-.64,2.18524,2.18524,0,0,1,1.31006.52,15.22485,15.22485,0,0,1,2.27979,2.83c.74023,1.06006,1.5,2.14,2.35009,3.2a11.151,11.151,0,0,0,3.23,2.76,8.36448,8.36448,0,0,0,4.16993.91,11.03507,11.03507,0,0,0,1.41992-.09C376.26718,497.25837,368.49716,496.81843,364.8873,489.58833Z"/><path d="M421.68711,466.63838c-.86988-.83-1.78-2.43994-2.39991-5.48-1.57007-7.6-6.48-2.46-6.48-2.46-7.73242,6.94507-9.28174.64636-13.41015-2.01-1.20264-.77393-6.91993-.89-8.71,3.13a12.44782,12.44782,0,0,1-2.66016,3.46,10.47482,10.47482,0,0,1,3.27.24,13.81077,13.81077,0,0,1,3.08008,1.1,10.066,10.066,0,0,1,2.71,1.96,4.46985,4.46985,0,0,1,1.42041,3.07007,8.87232,8.87232,0,0,0-2.42041-1.85c-.8501-.49-1.71973-.95007-2.61963-1.4-.90039-.45-1.80029-.91992-2.72022-1.40991a23.92112,23.92112,0,0,1-2.72021-1.71009h-.00977a43.8618,43.8618,0,0,1-5.18994,4.28,7.3026,7.3026,0,0,1,3.18994.01,9.655,9.655,0,0,1,2.99024,1.18994,8.50051,8.50051,0,0,1,2.41992,2.17005,6.42042,6.42042,0,0,1,1.27,2.96c-.89014-.6499-1.59033-1.31006-2.39014-1.85a27.375,27.375,0,0,0-2.33984-1.56994c-1.6001-1-3.28027-1.83008-5.14014-2.91H382.817c-1.38965,1-2.3999,1.64-2.3999,1.64-1.16993.57995-2.25,1.1499-3.25977,1.72a9.40123,9.40123,0,0,1,3.25.64,11.473,11.473,0,0,1,2.92969,1.55994,9.10452,9.10452,0,0,1,2.37011,2.42,5.29479,5.29479,0,0,1,.96,3.27,14.87448,14.87448,0,0,0-2.14991-2.24c-.74023-.66-1.5498-1.24011-2.35986-1.84-1.61035-1.20008-3.32031-2.3-5-3.81006h-.01025c-16.19971,9.1-13.04,16.82007-13.04,16.82007a14.8886,14.8886,0,0,0,.78027,1.84985,8.26626,8.26626,0,0,1,1.34961-3.79993,3.18559,3.18559,0,0,1,1.93018-1.29992,2.76341,2.76341,0,0,1,.64013-.05l.62012.11a5.7478,5.7478,0,0,1,1.09961.49l.88037.67005c.25977.25.48975.51.73975.77.49023.52.86035,1.02,1.29,1.53991.81,1.04,1.56,2.09,2.37011,3.04a7.94746,7.94746,0,0,0,5.92969,3.39,37.08279,37.08279,0,0,0,7.66016-.41h.01025a32.78563,32.78563,0,0,0,9.65967-6.52c7.29-6.98,16.4602-8.07995,22.08008-12.28991.12011-.09009.23-.18006.35009-.27A5.46511,5.46511,0,0,0,421.68711,466.63838Zm-11.21973,2.88a32.28919,32.28919,0,0,1-5.7002,4.92005,18.85058,18.85058,0,0,1-3.35986,1.87,19.22053,19.22053,0,0,1,2.33984-3.05,33.62432,33.62432,0,0,1,2.71-2.63,30.67056,30.67056,0,0,1,2.99024-2.29,18.21338,18.21338,0,0,1,3.35986-1.86987A19.28126,19.28126,0,0,1,410.46738,469.51838Z"/><path d="M398.508,450.205a16.13251,16.13251,0,0,1-.13745,4.24829,15.94534,15.94534,0,0,1-1.12574,4.09875,15.94621,15.94621,0,0,1,.1377-4.24829A16.13134,16.13134,0,0,1,398.508,450.205Z"/><path d="M416.02142,460.86536a17.27448,17.27448,0,0,1,.37011-4.38416,17.063,17.063,0,0,1,1.34986-4.1875,17.07328,17.07328,0,0,1-.37012,4.38416A17.26368,17.26368,0,0,1,416.02142,460.86536Z"/><path d="M441.837,419.93843a24.02764,24.02764,0,0,1-2.12989-4.16c-.08984-.24-.18994-.49-.29-.74-.2-.53991-.39991-1.07995-.58008-1.63.31006-.04.62011-.08008.93017-.13.2.46009.3899.93006.58008,1.4.10986.29.22.57995.31983.87A23.07361,23.07361,0,0,1,441.837,419.93843Z"/><path d="M453.91961,405.76782a13.38467,13.38467,0,0,1,2.18872,3.18811,13.23358,13.23358,0,0,1,1.29883,3.64246,13.23606,13.23606,0,0,1-2.189-3.188A13.38719,13.38719,0,0,1,453.91961,405.76782Z"/><path d="M394.71038,206.12634c3.32666.35486,6.59717.8645,9.8772,1.21179a45.806,45.806,0,0,0,4.90625.32825,11.771,11.771,0,0,0,2.40722-.20935,3.44034,3.44034,0,0,0,1.11207-.40063,1.73615,1.73615,0,0,0,.7185-.93006,1.657,1.657,0,0,1-.55713,1.14014,3.80126,3.80126,0,0,1-1.13012.6593,9.67554,9.67554,0,0,1-2.51319.52,26.24817,26.24817,0,0,1-5.05078-.114A44.27107,44.27107,0,0,1,394.71038,206.12634Z"/><path d="M347.5921,131.18227l-5.20194-2.667a1,1,0,0,1-.04048-1.75778l5.08961-2.91276a1,1,0,0,1,1.49651.84779l-.94362,2.81012,1.05594,2.76963A1,1,0,0,1,347.5921,131.18227Z"/><path d="M287.68883,60.4936a7.57207,7.57207,0,0,0-7.57255,7.57255c0,3.33492,4.81362,10.65859,6.76582,13.49073a.91888.91888,0,0,0,1.61345,0c1.95019-2.83214,6.76582-10.15581,6.76582-13.49073a7.57207,7.57207,0,0,0-7.57254-7.57255Zm0,3.53384a4.03869,4.03869,0,1,1-4.03869,4.03871,4.03887,4.03887,0,0,1,4.03869-4.03871Zm0,0"/><path d="M279.31146,87.28589c.13232,2.93469.2124,5.86938.26855,8.80408.082,2.93469.07593,5.8695.11108,8.8042.04126,2.93469-.00195,5.86938-.04467,8.80407l-.19263,8.8042v.007a.19009.19009,0,0,1-.19263.18567q-5.59131-.07782-11.18262.01819l-11.18261.20923-11.18262.10412-11.18286-.0293.49463-.49462-.157,9.76733q-.09814,4.88361-.2876,9.76733a.05009.05009,0,0,1-.1001,0q-.18311-4.8836-.2876-9.76733l-.157-9.76733a.48676.48676,0,0,1,.479-.49476l.00391-.00012h.01172l11.18286-.02942,11.18262.10425,11.18261.20911q5.59131.0921,11.18262.01831l-.19238.19238-.19263-8.8042c-.04248-2.93469-.08569-5.86938-.04443-8.80407.03515-2.9347.029-5.86951.11108-8.8042.05616-2.9347.13623-5.86939.26856-8.80408a.0501.0501,0,0,1,.1001,0Z"/><path d="M367.489,133.72437c-9.728.33239-19.45606.41-29.18409.37622-4.864-.022-9.728-.16248-14.592-.23q-7.296-.07967-14.592.01489-14.592.27117-29.18408.32007c-9.728-.0094-19.45606-.05567-29.18408-.26795l.26318-.26318-.21338,8.36291a.04994.04994,0,0,1-.09985,0l-.21338-8.36291a.25687.25687,0,0,1,.25-.26306h.001l.01245-.00025c9.728-.21228,19.456-.25854,29.18408-.26794q14.592.069,29.18408.32007,7.296.0996,14.592.01477c4.864-.06739,9.728-.20789,14.592-.22986,9.728-.03381,19.45606.04382,29.18409.37622a.05.05,0,0,1,0,.1Z"/><path d="M304.04583,73.07117c.0686.84643.1416,1.6687.18848,2.45971.04492.79126.116,1.5813.14306,2.34266a39.69231,39.69231,0,0,1,.01831,4.53381l-.385-.38513c1.37989.0758,2.75977.20923,4.1399.2268.68994.02027,1.37988-.01159,2.06982-.02.68994-.00732,1.37988-.06518,2.07007-.09533l-.27368.27368c-.10083-1.56189-.17749-3.12378-.20288-4.68567-.03955-1.56189-.08228-3.12378-.04639-4.68579l.52295.523C309.654,73.50867,307.0202,73.30591,304.04583,73.07117Zm-.0708-.07068c2.54541-.23474,5.43188-.4375,8.31543-.48767a.51376.51376,0,0,1,.52246.50183l.00049.02124c.03589,1.562-.00684,3.1239-.04639,4.68579-.02539,1.56189-.10205,3.12378-.20288,4.68567l-.002.02978a.26112.26112,0,0,1-.27173.244c-.69019-.03-1.38013-.08789-2.07007-.09521-.68994-.00855-1.37988-.04041-2.06982-.02014-1.38013.0177-2.76.15112-4.1399.2268a.36308.36308,0,0,1-.38232-.33838l-.00317-.04687a45.08084,45.08084,0,0,1,.01855-4.83777c.02686-.80041.0979-1.57239.14282-2.343C303.83343,74.45557,303.90667,73.71594,303.975,73.00049Z"/><path d="M325.79021,67.45435c.1023,2.11694.1753,4.17358.23658,6.2091.08008,2.04578.08593,4.03321.13257,6.04224.01977,1.9967.02026,3.97717-.05713,5.95825-.053,1.98352-.165,3.98193-.17212,5.99341l-.1753-.17517c1.38013.03271,2.76.01977,4.1399.00024,1.38012-.00256,2.76-.06579,4.14013-.09875l-.27368.27368q-.11243-3.02985-.16675-6.05957l-.07983-6.05957q-.03186-3.02985.00659-6.05957c.01294-2.01978.0813-4.03968.11939-6.05957l.39428.39428C331.3742,67.74487,328.66106,67.57581,325.79021,67.45435Zm-.0708-.07068c2.64893-.12146,5.45606-.29053,8.31543-.359a.38512.38512,0,0,1,.39405.37573v.00195l.00024.01673c.03809,2.01989.10645,4.03979.11939,6.05957q.03954,3.02985.00634,6.05957l-.07983,6.05957q-.05493,3.02965-.1665,6.05957l-.00049.01672a.26716.26716,0,0,1-.2732.25708c-1.38012-.033-2.76-.09631-4.14013-.09875-1.37989-.01953-2.75977-.03247-4.1399.00024a.17149.17149,0,0,1-.17529-.16711v-.00818c-.00708-2.02832-.11914-4.0697-.17212-6.12586-.07739-2.05871-.07666-4.11779-.05713-6.16088.04688-2.03064.05274-4.08289.13257-6.07679C325.54412,71.28955,325.61712,69.3064,325.71941,67.38367Z"/><path d="M265.04241,110.77954c.23169,2.52783.41382,4.69678.41236,6.90784l-.44776-.44788c1.62012-.00512,3.24024.17615,4.86011.2594a42.29869,42.29869,0,0,0,4.86035-.0852l-.27368.27368c-.179-2.31446-.21045-4.62879-.2583-6.94312l.532.532c-.77856.00769-1.55347,0-2.33423-.02869-.77685-.01306-1.56933-.07642-2.36474-.11426C268.43865,111.05261,266.78973,110.91235,265.04241,110.77954Zm-.0708-.0708c1.49268-.13281,3.084-.27307,4.73438-.35376.82446-.03784,1.65234-.1012,2.49536-.11426.83935-.02868,1.68457-.03637,2.52612-.02868l.01563.00012a.52143.52143,0,0,1,.5166.52612l-.00025.006c-.0476,2.31433-.07934,4.62866-.2583,6.94312l-.00293.03918a.25492.25492,0,0,1-.27075.23462,42.29869,42.29869,0,0,0-4.86035-.0852c-1.61987.08325-3.24.26452-4.86011.2594a.448.448,0,0,1-.448-.448A64.70462,64.70462,0,0,1,264.97161,110.70874Z"/><path d="M299.18548,135.71045c.23193,2.528.41406,4.6969.4126,6.90784l-.44776-.44776c1.62012-.00512,3.24.176,4.86011.2594a42.32076,42.32076,0,0,0,4.86011-.0852l-.27344.27356c-.179-2.31433-.21069-4.62867-.25855-6.943l.532.53186c-.77857.00769-1.55347.00013-2.334-.02856-.7771-.01318-1.56933-.07642-2.365-.11426C302.58172,135.98364,300.93279,135.84326,299.18548,135.71045Zm-.07056-.07068c1.49268-.13281,3.084-.27319,4.73438-.35388.82446-.03784,1.6521-.10108,2.49511-.11414.8396-.02881,1.68482-.03637,2.52613-.02868l.01587.00012a.52156.52156,0,0,1,.5166.526l-.00025.0061c-.04785,2.31433-.07934,4.62867-.2583,6.943l-.00293.0393a.255.255,0,0,1-.271.23462,42.29589,42.29589,0,0,0-4.86011-.08533c-1.62012.08338-3.24.26465-4.86011.2594a.44775.44775,0,0,1-.448-.448A64.70232,64.70232,0,0,1,299.11492,135.63977Z"/><path d="M257.49139,136.28687c.08789,2.39245.2146,4.66711.25952,6.90783l-.29492-.2948c3.15039-.09619,6.301-.10534,9.45141-.14026q4.72559-.03351,9.45117.10242c3.15039.09107,6.301.16345,9.45142.17761q4.72558.00129,9.45117-.11865l-.27344.27368c-.05737-2.31433-.11523-4.62878-.14453-6.94311l.418.41809-9.35425.09021c-3.11059.01977-6.23462-.028-9.35571-.04322l-9.44433-.17138Zm-.0708-.07068,9.28711-.25843,9.45825-.17138c3.17993-.01526,6.35669-.063,9.54712-.04334l9.54809.09033.00928.00013a.41314.41314,0,0,1,.40918.41687v.00122c-.0293,2.31433-.08716,4.62878-.14453,6.94311l-.00025.01355a.267.267,0,0,1-.27368.26026q-4.72559-.11646-9.45117-.11853c-3.15039.01416-6.301.08654-9.45142.17761s-6.30078.12475-9.45117.10229c-3.15039-.03491-6.301-.04394-9.45141-.14013l-.01465-.00037a.28948.28948,0,0,1-.28028-.29468C257.20574,140.80664,257.33245,138.45251,257.42059,136.21619Z"/><path d="M337.86175,59.06616l.18554,7.92957.11084,7.92944.10157,15.85913-.03614,7.92957-.11328,7.92944q-.14025,7.92957-.145,15.85913a.1546.1546,0,0,1-.1538.15357c-3.48.0227-6.96.01294-10.44.06738l-10.43994.1206q-10.43994.14044-20.87988.16687a.5063.5063,0,0,1-.5083-.50463v-.00379l-.0061-12.84888c.00146-4.28308.0144-8.566.08032-12.849l.15112-12.84888c.032-4.283.13867-8.566.23291-12.849a.05006.05006,0,0,1,.1001,0c.094,4.283.20068,8.566.23291,12.849l.15088,12.84888c.06616,4.28295.0791,8.56591.08056,12.849l-.0061,12.84888-.5083-.50818q10.43994.03938,20.87988.16675l10.43994.12073c3.48.05444,6.96.04455,10.44.06726l-.15333.15344q-.01355-7.92957-.145-15.85913l-.11353-7.92944-.03613-7.92957.1018-15.85913.11084-7.92944.18555-7.92957a.05006.05006,0,0,1,.1001,0Z"/><path d="M259.37045,115.94744a1.5009,1.5009,0,0,0,0-3,1.5009,1.5009,0,0,0,0,3Z"/><path d="M307.97045,89.66744a1.5009,1.5009,0,0,0,0-3,1.5009,1.5009,0,0,0,0,3Z"/><path d="M333.99944,117.40015c-.0686-.84644-.1416-1.6687-.18847-2.4596-.04493-.79138-.116-1.5813-.14307-2.34277a39.69238,39.69238,0,0,1-.01831-4.53382l.38525.38514c-1.38012-.07569-2.76-.20911-4.14013-.22681-.68994-.02026-1.37989.0116-2.06983.02014-.68994.00733-1.37988.06519-2.07007.09522l.27369-.27356c.10083,1.56189.17749,3.12378.20288,4.68567.03955,1.56189.08227,3.12378.04638,4.68566l-.52295-.52282C328.39129,116.96277,331.02508,117.16553,333.99944,117.40015Zm.0708.0708c-2.54541.23462-5.43188.43738-8.31543.48755a.5137.5137,0,0,1-.52246-.50183l-.00048-.02125c-.03565-1.56188.00683-3.12377.04638-4.68566.02539-1.56189.102-3.12378.20288-4.68567l.002-.02991a.26121.26121,0,0,1,.27172-.244c.69019.03015,1.38013.088,2.07007.09522.68994.00854,1.37989.0404,2.06983.02014,1.38012-.01758,2.76-.151,4.14013-.22681a.36311.36311,0,0,1,.38208.3385l.00318.04688a45.14362,45.14362,0,0,1-.01831,4.83764c-.0271.80054-.09815,1.57251-.14307,2.343C334.21185,116.01575,334.13885,116.75537,334.07024,117.471Z"/><path d="M330.07483,103.80393a1.5009,1.5009,0,0,0,0-3,1.5009,1.5009,0,0,0,0,3Z"/><path d="M229.642,121.6123a26.78861,26.78861,0,0,0,5.57324-2.11962,22.30337,22.30337,0,0,0,4.88526-3.32373,18.61873,18.61873,0,0,0,3.69751-4.53125,22.762,22.762,0,0,0,2.06958-5.49671c.51318-1.92407.95385-3.87109,1.35132-5.8363a39.29889,39.29889,0,0,1,1.51269-5.85132,9.40545,9.40545,0,0,1,3.8291-4.62817,24.5925,24.5925,0,0,1,5.60205-2.274,13.04775,13.04775,0,0,0,4.96753-3.00769,18.68887,18.68887,0,0,0,3.42676-4.73194,27.83024,27.83024,0,0,0,2.07544-5.51782,23.83231,23.83231,0,0,0,.81909-5.81177A15.521,15.521,0,0,1,270.364,62.412a12.60425,12.60425,0,0,1,3.56665-5.02735c3.21167-2.67712,7.35961-3.64489,11.32544-3.95031a.04989.04989,0,0,1,.05371.046.05091.05091,0,0,1-.04322.05346c-3.92578.6084-7.90429,1.80835-10.81982,4.43824a11.72737,11.72737,0,0,0-3.1792,4.7749,13.50848,13.50848,0,0,0-.665,2.81079,22.15329,22.15329,0,0,0-.11987,2.94592,22.911,22.911,0,0,1-.845,6.06555,28.80338,28.80338,0,0,1-2.248,5.68006,18.49061,18.49061,0,0,1-3.718,4.87414,13.20965,13.20965,0,0,1-5.35083,2.95191,21.638,21.638,0,0,0-5.57641,2.0498,8.84012,8.84012,0,0,0-2.24146,1.89551c-.15185.19287-.32007.37451-.459.57678l-.36963.63977a9.96261,9.96261,0,0,0-.61963,1.34107,29.8896,29.8896,0,0,0-1.28784,5.82629c-.3064,1.9812-.645,3.969-1.09522,5.9364a21.18486,21.18486,0,0,1-2.11206,5.73364,19.43645,19.43645,0,0,1-3.95532,4.6731,22.885,22.885,0,0,1-10.94531,4.96326.05005.05005,0,0,1-.05762-.041A.0541.0541,0,0,1,229.642,121.6123Z"/><path d="M356.57049,88.861c.14575,2.80347.258,5.60694.31592,8.4104q.11791,4.20521.15747,8.41028l.0144,8.4104c-.00928,2.80347-.03857,5.60693-.10864,8.4104l-.37915-.379c3.63965.07874,7.279.17627,10.91846.37915-3.63941.20288-7.27881.3003-10.91846.37915a.37077.37077,0,0,1-.37866-.36279l-.00049-.01648c-.07007-2.80347-.09937-5.60693-.10864-8.4104l.01416-8.4104q.03588-4.20521.15771-8.41028C356.31243,94.4679,356.42474,91.66443,356.57049,88.861Z"/><path d="M228.00433,53.41333l36.352-.40344,18.2749-.17078,18.3418-.10058c12.23877-.04346,24.47461-.16846,36.74951-.10877l18.39111.05408,18.37525.1626h.01147a.63188.63188,0,0,1,.62622.63745v.00024l-.22436,23.96619-.09766,23.96606.03931,23.96619.14794,23.96606a.49982.49982,0,0,1-.49682.50293h-.0061l-20.63843.21509.71777-.71777.12158,15.77478a.83571.83571,0,0,1-1.20263.7572l-.011-.00562-31.71948-15.69555.41357.09717-23.52368.077-23.52393.04981-47.0476-.07483-.00806-.00012a.97383.97383,0,0,1-.97217-.97522l.00025-.00489c.106-16.08764.18042-32.18164.36328-48.18762Zm.14135.14148.5459,48.11694.36353,47.67688-.98-.97986,47.0476-.075,23.52393.04981,23.52368.077h.00537a.93382.93382,0,0,1,.40845.09729l31.64038,15.85437-1.21362.75135.12158-15.77478.00024-.01294a.71036.71036,0,0,1,.71582-.70508h.002l20.63843.21509-.50269.50268.14795-23.96606.03906-23.96619-.09765-23.96606-.22437-23.96619.6377.63757-18.22828.1626-18.2124.054c-12.12744.05981-24.29394-.06519-36.45752-.10865L283.329,54.129l-18.32837-.1709Z"/><rect x="287.19323" y="82.0361" width="1.00012" height="0.50007" transform="translate(-1.32625 4.78684) rotate(-0.95111)"/><path d="M287.91717,123.9082l-.01807-1.0332,1-.01758.01807,1.03321Zm-.07227-4.13574-.01758-1.03418,1-.01758.01758,1.03418Zm-.07178-4.13672-.01806-1.03418,1-.01758.01806,1.03418Zm-.07177-4.13672-.01807-1.03418,1-.01757.01807,1.03418Zm-.07227-4.13574-.01758-1.03418,1-.01758.01758,1.03418Zm-.07178-4.13672-.01806-1.03418,1-.01758.01806,1.03418Zm-.07177-4.13672-.01807-1.03418,1-.01757.01807,1.03418Zm-.07227-4.13671-.01758-1.03418,1-.01758.01758,1.03418Zm-.07178-4.13575-.01806-1.03418,1-.01757.01806,1.03417Zm-.07177-4.13672-.01807-1.03418,1-.01757.01807,1.03418Z"/><polygon points="288.98 128.003 287.988 128.003 287.971 127.012 288.971 126.994 288.98 128.003"/><path d="M338.778,128.00293h-1.0376v-1h1.0376Zm-4.1499,0h-1.0376v-1h1.0376Zm-4.14991,0h-1.03759v-1h1.03759Zm-4.1499,0h-1.0376v-1h1.0376Zm-4.1499,0h-1.0376v-1h1.0376Zm-4.1499,0h-1.0376v-1h1.0376Zm-4.14991,0H312.841v-1h1.03759Zm-4.1499,0h-1.03711v-1h1.03711Zm-4.1499,0h-1.03711v-1h1.03711Zm-4.14942,0h-1.03759v-1h1.03759Zm-4.1499,0h-1.0376v-1h1.0376Zm-4.1499,0H292.092v-1h1.0376Z"/><rect x="341.89031" y="127.00293" width="0.5" height="1"/></svg>