<svg width="1280" height="960" viewBox="0 0 1280 960" fill="none" xmlns="http://www.w3.org/2000/svg">
<rect width="1280" height="960" fill="#CAE8FF"/>
<path d="M1007.95 184.17H350.47V702.39H1007.95V184.17Z" fill="#E6E6E6"/>
<path d="M568.18 516.03H442.54V636.21H568.18V516.03Z" fill="#C9C9C9"/>
<path opacity="0.08" d="M1007.95 294.54H825.1V674.79H1007.95V294.54Z" fill="black"/>
<path opacity="0.08" d="M361.54 322.95C361.54 322.95 376.21 318.75 381.46 341.16C386.71 363.57 384.22 368.46 373.27 374.16C362.32 379.86 367.96 416.16 387.85 415.41C407.74 414.66 423.85 398.55 433.6 415.41C443.35 432.27 453.16 555.84 493.81 529.14C534.46 502.44 543.58 400.14 543.58 400.14L616.21 399.09V479.31L559.72 478.2C559.72 478.2 552.43 576.72 472.96 598.74C469.007 599.786 465.308 601.626 462.088 604.146C458.869 606.667 456.195 609.816 454.231 613.403C452.267 616.989 451.052 620.938 450.662 625.008C450.272 629.078 450.713 633.186 451.96 637.08L473.32 702.6H350.32V616.2C350.32 616.2 344.62 347.55 361.54 322.95Z" fill="black"/>
<path opacity="0.45" d="M366.58 832.95C490.281 832.95 590.56 818.726 590.56 801.18C590.56 783.634 490.281 769.41 366.58 769.41C242.879 769.41 142.6 783.634 142.6 801.18C142.6 818.726 242.879 832.95 366.58 832.95Z" fill="#E6E6E6"/>
<path opacity="0.58" d="M199.9 769.44C199.9 769.44 178.18 763.62 173.35 743.43C173.35 743.43 206.98 736.5 208.09 771.21L199.9 769.44Z" fill="#4550E6"/>
<path opacity="0.73" d="M202.57 767.28C202.57 767.28 187.3 743.28 200.53 720.9C200.53 720.9 226.18 737.04 214.96 767.28H202.57Z" fill="#4550E6"/>
<path d="M206.47 767.28C206.47 767.28 214.39 741.93 238.6 737.04C238.6 737.04 243.19 753.45 223.03 767.28H206.47Z" fill="#4550E6"/>
<path d="M190.72 766.77L195.25 796.89H222.97L226.93 766.77H190.72Z" fill="#24285B"/>
<path d="M401.77 230.91C407.436 230.91 412.03 226.316 412.03 220.65C412.03 214.984 407.436 210.39 401.77 210.39C396.104 210.39 391.51 214.984 391.51 220.65C391.51 226.316 396.104 230.91 401.77 230.91Z" fill="#24285B"/>
<path d="M432.28 230.91C437.946 230.91 442.54 226.316 442.54 220.65C442.54 214.984 437.946 210.39 432.28 210.39C426.614 210.39 422.02 214.984 422.02 220.65C422.02 226.316 426.614 230.91 432.28 230.91Z" fill="#4550E6"/>
<path d="M461.02 230.91C466.686 230.91 471.28 226.316 471.28 220.65C471.28 214.984 466.686 210.39 461.02 210.39C455.354 210.39 450.76 214.984 450.76 220.65C450.76 226.316 455.354 230.91 461.02 230.91Z" fill="#FFD200"/>
<path d="M365.14 399.9C365.14 399.9 411.31 393.9 420.61 432.33C429.91 470.76 431.2 524.43 468.31 535.11C505.42 545.79 526 471.6 526 471.6C526 471.6 534.61 450.78 544 447.93C553.39 445.08 559.9 465.63 544 478.23C544 478.23 530.62 573 459.43 569.67C388.24 566.34 365.14 468.66 365.14 399.9Z" fill="#F4A28C"/>
<path opacity="0.08" d="M365.14 399.9C365.14 399.9 411.31 393.9 420.61 432.33C429.91 470.76 431.2 524.43 468.31 535.11C505.42 545.79 526 471.6 526 471.6C526 471.6 534.61 450.78 544 447.93C553.39 445.08 559.9 465.63 544 478.23C544 478.23 530.62 573 459.43 569.67C388.24 566.34 365.14 468.66 365.14 399.9Z" fill="black"/>
<path d="M365.14 399.9C365.14 399.9 414.73 390.12 421.69 430.2C425.477 453.178 431.92 475.639 440.89 497.13L403 509.4L365.14 399.9Z" fill="#4550E6"/>
<path opacity="0.46" d="M365.14 399.9C365.14 399.9 414.73 390.12 421.69 430.2C425.477 453.178 431.92 475.639 440.89 497.13L403 509.4L365.14 399.9Z" fill="white"/>
<path d="M362.77 334.77C366.294 342.262 368.797 350.192 370.21 358.35C370.314 359.331 370.223 360.323 369.943 361.269C369.663 362.215 369.199 363.097 368.577 363.863C367.956 364.63 367.189 365.266 366.321 365.736C365.453 366.205 364.502 366.499 363.52 366.6C360.378 367.107 357.156 366.697 354.24 365.42C351.324 364.143 348.838 362.053 347.08 359.4L338.38 348.75C336.86 346.434 336.099 343.702 336.201 340.934C336.303 338.166 337.264 335.498 338.95 333.3C344.74 324.72 359.29 326.34 362.77 334.77Z" fill="#F4A28C"/>
<path d="M341.65 351.18L338.14 399.9H365.14L357.04 365.37L341.65 351.18Z" fill="#F4A28C"/>
<path d="M366.34 343.47L372.34 347.4C372.681 347.613 372.962 347.909 373.157 348.261C373.352 348.613 373.454 349.008 373.454 349.41C373.454 349.812 373.352 350.207 373.157 350.559C372.962 350.911 372.681 351.207 372.34 351.42L367.36 354.42L366.34 343.47Z" fill="#F4A28C"/>
<path opacity="0.31" d="M357.28 366.33C354.022 365.756 350.983 364.304 348.49 362.13C348.49 362.13 346.75 372.69 359.59 376.23L357.28 366.33Z" fill="#CE8172"/>
<path d="M350.44 350.58C350.44 350.58 348.37 345.24 344.44 347.16C340.51 349.08 343.54 356.79 349.3 355.5L350.44 350.58Z" fill="#F4A28C"/>
<path d="M413.86 677.28L436.69 780.99H423.43L379.03 677.28H413.86Z" fill="#F4A28C"/>
<path d="M339.61 664.68L315.28 780.99H301.96L303.97 663.87L339.61 664.68Z" fill="#F4A28C"/>
<path d="M436.69 780.99C436.69 780.99 444.07 790.35 453.49 789.99C462.91 789.63 464.29 802.86 449.14 801.48C444.418 801.093 439.74 800.29 435.16 799.08C430.933 798.118 426.529 798.273 422.38 799.53C421.571 799.714 420.726 799.649 419.955 799.344C419.184 799.039 418.523 798.508 418.06 797.82C413.74 792.75 424.33 781.11 424.33 781.11L436.69 780.99Z" fill="#4550E6"/>
<path d="M302.92 780.99C302.92 780.99 295.54 790.35 286.12 789.99C276.7 789.63 275.32 802.86 290.5 801.48C295.211 801.091 299.879 800.287 304.45 799.08C308.677 798.118 313.081 798.273 317.23 799.53C318.039 799.714 318.884 799.649 319.655 799.344C320.426 799.039 321.086 798.508 321.55 797.82C325.87 792.75 315.28 781.11 315.28 781.11L302.92 780.99Z" fill="#4550E6"/>
<path d="M365.14 399.9H338.14C338.14 399.9 336.31 399.9 333.13 399.9C274.27 401.79 240.13 467.16 271.36 517.05C288.73 544.8 309.46 582.21 310.84 604.56L415.84 599.28C415.84 599.28 407.89 531.24 427.33 492.36C427.24 492.36 463 431.16 365.14 399.9Z" fill="#4550E6"/>
<path opacity="0.08" d="M318.28 435.54C318.28 435.54 331.3 462.54 334.42 510.99C337.54 559.44 411.13 502.2 411.13 502.2L414.49 582.33L307.39 588L298.39 555.54C298.39 555.54 270.4 505.26 318.28 435.54Z" fill="black"/>
<path d="M429.159 465.471L359.257 457.284L346.607 565.295L416.509 573.482L429.159 465.471Z" fill="#FFD200"/>
<path d="M411.074 456.465L378.536 452.654L376.683 468.476L409.221 472.286L411.074 456.465Z" fill="#24285B"/>
<path d="M414.49 582.33L307.39 587.97L278.8 696.45L433.6 690.93L414.49 582.33Z" fill="#24285B"/>
<path opacity="0.08" d="M424.81 502.35L350.47 532.02L346.57 565.35L416.47 573.54L424.81 502.35Z" fill="black"/>
<path d="M317.38 440.73C317.555 435.966 316.234 431.268 313.603 427.293C310.972 423.318 307.163 420.266 302.71 418.565C298.257 416.865 293.383 416.601 288.772 417.81C284.161 419.02 280.045 421.642 277 425.31C261.817 443.572 253.789 466.729 254.41 490.47C255.28 553.98 263.83 622.68 400.78 547.47L393.4 527.34C393.4 527.34 332.62 556.56 307.24 547.08C288.52 540.21 315.46 484.32 317.38 440.73Z" fill="#F4A28C"/>
<path d="M393.34 527.46C393.34 527.46 416.17 516.6 425.89 527.46C435.61 538.32 420.16 548.04 400.72 547.59L393.34 527.46Z" fill="#F4A28C"/>
<path d="M365.14 327.6L369.82 339.33L350.44 346.74C350.44 346.74 349.36 359.76 356.2 362.13C354.615 362.057 353.061 361.663 351.633 360.972C350.205 360.281 348.931 359.307 347.89 358.11C347.074 357.215 345.943 356.672 344.735 356.593C343.526 356.515 342.335 356.908 341.41 357.69L341.17 357.93C335.622 352.463 331.714 345.552 329.89 337.98C327.7 326.52 340.51 324.75 340.51 324.75C340.51 324.75 357.52 312.81 365.14 327.6Z" fill="#24285B"/>
<path d="M340.51 324.75C340.51 324.75 339.61 313.71 319.75 315.45C299.89 317.19 319.75 344.07 303.4 369.09C303.4 369.09 333.4 362.73 334.33 335.79L340.51 324.75Z" fill="#24285B"/>
<path d="M341.77 324C340.251 323.209 338.538 322.869 336.833 323.017C335.127 323.166 333.499 323.798 332.14 324.84C326.5 328.38 324.01 341.4 332.89 345.84C332.89 345.81 325.54 328.2 341.77 324Z" fill="#FFD200"/>
<path d="M308.71 509.4H250.39C250.39 509.4 244 424.26 292.39 413.4C340.78 402.54 308.71 509.4 308.71 509.4Z" fill="#4550E6"/>
<path opacity="0.46" d="M308.71 509.4H250.39C250.39 509.4 244 424.26 292.39 413.4C340.78 402.54 308.71 509.4 308.71 509.4Z" fill="white"/>
<path d="M707.98 269.64H440.89V360.87H707.98V269.64Z" fill="#C9C9C9"/>
<path d="M502.57 345.72C519.387 345.72 533.02 332.087 533.02 315.27C533.02 298.453 519.387 284.82 502.57 284.82C485.753 284.82 472.12 298.453 472.12 315.27C472.12 332.087 485.753 345.72 502.57 345.72Z" fill="white"/>
<path d="M661.63 295.02H559.9V310.17H661.63V295.02Z" fill="white"/>
<path opacity="0.45" d="M661.63 320.34H559.9V335.49H661.63V320.34Z" fill="white"/>
<path d="M587.35 392.46H499.84V465.45H587.35V392.46Z" fill="#4550E6"/>
<path opacity="0.62" d="M508.96 454.14L529.81 416.94L544.39 444.48L562.12 421.11L579.85 454.14H508.96Z" fill="white"/>
<path d="M547.66 419.7C551.487 419.7 554.59 416.597 554.59 412.77C554.59 408.943 551.487 405.84 547.66 405.84C543.833 405.84 540.73 408.943 540.73 412.77C540.73 416.597 543.833 419.7 547.66 419.7Z" fill="white"/>
<path d="M1068.85 255.96H782.35V636.21H1068.85V255.96Z" fill="#F2F2F2"/>
<path d="M917.59 284.82H809.59V369.21H917.59V284.82Z" fill="#C9C9C9"/>
<path opacity="0.74" d="M1041.58 284.82H933.58V369.21H1041.58V284.82Z" fill="#C9C9C9"/>
<path opacity="0.47" d="M917.59 386.76H809.59V471.15H917.59V386.76Z" fill="#C9C9C9"/>
<path opacity="0.21" d="M1041.58 386.76H933.58V471.15H1041.58V386.76Z" fill="#C9C9C9"/>
<path d="M976.6 508.8H874.6V553.68H976.6V508.8Z" fill="#FFD200"/>
<path opacity="0.46" d="M963.52 515.07H919.27V526.62H963.52V515.07Z" fill="white"/>
<path d="M962.35 573.72H895.6V587.1H962.35V573.72Z" fill="white"/>
<path d="M725.83 516.03H600.19V636.21H725.83V516.03Z" fill="#C9C9C9"/>
</svg>
