<svg width="1280" height="960" viewBox="0 0 1280 960" fill="none" xmlns="http://www.w3.org/2000/svg">
<rect width="1280" height="960" fill="#CAE8FF"/>
<path opacity="0.18" d="M203.92 562.32C203.92 557.79 134.32 418.32 273.52 325.68C412.72 233.04 507.76 239.49 604.54 303.18C701.32 366.87 1309 261.93 1064.59 750.36L891.58 769.11L425.65 756.75L203.92 562.32Z" fill="#E6E6E6"/>
<path opacity="0.58" d="M1046.62 702C1046.62 702 1009 691.8 1000.51 656.73C1000.51 656.73 1058.92 644.73 1060.81 705L1046.62 702Z" fill="#4550E6"/>
<path opacity="0.73" d="M1051.24 698.19C1051.24 698.19 1024.72 656.64 1047.73 617.58C1047.73 617.58 1092.28 645.63 1072.78 698.19H1051.24Z" fill="#4550E6"/>
<path d="M1058.02 698.19C1058.02 698.19 1071.76 654.12 1113.82 645.63C1113.82 645.63 1121.83 674.16 1086.82 698.19H1058.02Z" fill="#4550E6"/>
<path d="M1030.66 697.32L1038.52 749.58H1086.7L1093.57 697.32H1030.66Z" fill="#24285B"/>
<path d="M912.19 749.58L949.18 624.21H769.51L743.44 726.51L678.34 729.99V749.58H912.19Z" fill="#C9C9C9"/>
<path d="M1144 749.58H160.81V788.64H1144V749.58Z" fill="#E6E6E6"/>
<path opacity="0.4" d="M1144 788.67H160.81V823.65H1144V788.67Z" fill="#A5A5A5"/>
<path d="M322.36 534.87C322.36 534.87 393.22 483.87 475.9 494.46C558.58 505.05 590.32 525.78 596.17 622.95C602.02 720.12 556.3 823.62 556.3 823.62L420.76 822.39L322.36 534.87Z" fill="#4550E6"/>
<path opacity="0.08" d="M373.54 508.56C373.54 508.56 442.06 544.35 449.08 636.54C456.1 728.73 468.52 794.88 567.55 794.4L556.3 823.62L420.76 822.39L322.36 534.87C322.36 534.87 353.59 515.19 373.54 508.56Z" fill="black"/>
<path d="M146.41 822.39H420.73C420.73 822.39 427.06 667.35 378.16 578.31C329.26 489.27 17.0199 498.51 146.41 822.39Z" fill="#24285B"/>
<path d="M394.39 454.89L411.25 497.43L373.54 508.56L363.1 445.17L394.39 454.89Z" fill="#F4A28C"/>
<path d="M348.22 412.2C355.21 394.62 378.46 390.81 391.51 404.49C405.85 419.49 423.19 443.49 403.99 456.69C374.59 477.06 346.99 439.83 346.99 439.83C344.67 430.7 345.097 421.088 348.22 412.2Z" fill="#F4A28C"/>
<path d="M359.02 438.39C359.02 438.39 349.57 435.39 350.02 445.08C350.47 454.77 364.36 453.57 366.31 447.84C368.26 442.11 359.02 438.39 359.02 438.39Z" fill="#F4A28C"/>
<path d="M478.6 573C471.79 531.81 518.23 502.74 552.37 526.77C574.3 542.22 595.15 566.28 606.37 603.81C637.45 707.04 693.13 768.81 835.93 733.74L844.48 770.58C844.48 770.58 529 877.41 478.6 573Z" fill="#F4A28C"/>
<path d="M341.32 429.51C341.32 429.51 348.88 462.84 366.43 462.78C383.98 462.72 382.6 451.47 379 429.51C375.4 407.55 401.47 414.06 397.96 388.98C394.45 363.9 392.77 364.98 369.82 366.45C346.87 367.92 317.77 387.33 341.32 429.51Z" fill="#FFD200"/>
<path d="M846.37 729C846.37 729 863.38 719.19 878.29 723C893.2 726.81 895.12 748.23 880.96 755.19L852.61 769.11L846.37 729Z" fill="#F4A28C"/>
<path d="M1066.36 181.83H642.4V506.25H1066.36V181.83Z" fill="#24285B"/>
<path d="M870.55 213.03L897.01 271.29L862.57 296.82L855.73 242.01L870.55 213.03Z" fill="#F4A28C"/>
<path opacity="0.31" d="M856 243.57C856 243.57 877.63 240.21 880.39 233.82C880.39 233.82 898.57 266.61 859.39 269.82L856 243.57Z" fill="#CE8172"/>
<path d="M841.57 316.56C841.57 316.56 666.46 464.58 601.81 288.3L571.81 306.3C571.81 306.3 592.81 529.41 855.97 428.13L841.57 316.56Z" fill="#4550E6"/>
<path opacity="0.2" d="M841.57 316.56C841.57 316.56 666.46 464.58 601.81 288.3L571.81 306.3C571.81 306.3 592.81 529.41 855.97 428.13L841.57 316.56Z" fill="white"/>
<path d="M862.57 296.82C862.57 296.82 795.4 346.53 816.61 403.65C837.82 460.77 886 506.25 886 506.25H1066.42C1066.42 506.25 1064.47 461.7 1059.22 412.98C1051.66 342.87 1026.22 261.63 897.07 271.29L862.57 296.82Z" fill="#4550E6"/>
<path opacity="0.08" d="M962.14 316.56C962.14 316.56 938.14 340.77 948.07 371.46C958 402.15 991.18 499.8 917.02 490.56L976.81 497.79L1039.27 490.56L1066.78 425.52L1018.24 357L962.14 316.56Z" fill="black"/>
<path d="M702.49 225.48V314.13L792.16 265.95L702.49 225.48Z" fill="white"/>
<path d="M812.47 506.25L784.72 398.16H939.64L954.64 486.36L1018.24 489.36V506.25H812.47Z" fill="#FFD200"/>
<path d="M787.84 641.31L765.28 722.13H894.58L916.63 641.31H787.84Z" fill="white"/>
<path d="M873.55 464.52C880.807 464.52 886.69 458.637 886.69 451.38C886.69 444.123 880.807 438.24 873.55 438.24C866.293 438.24 860.41 444.123 860.41 451.38C860.41 458.637 866.293 464.52 873.55 464.52Z" fill="white"/>
<path d="M577 303.24C577 303.24 551.95 278.73 563.98 259.26C576.01 239.79 604.78 242.85 601.78 288.3L577 303.24Z" fill="#F4A28C"/>
<path d="M1006.57 294C1029.46 304.08 1053.37 321.39 1066.78 351.18L1066.36 506.4H1035.28L1022.2 479.7C1022.2 479.7 1038.22 415.08 987.64 365.49C980.393 358.445 973.722 350.83 967.69 342.72C948.28 316.05 976.51 280.62 1006.57 294Z" fill="#4550E6"/>
<path opacity="0.2" d="M1006.57 294C1029.46 304.08 1053.37 321.39 1066.78 351.18L1066.36 506.4H1035.28L1022.2 479.7C1022.2 479.7 1038.22 415.08 987.64 365.49C980.393 358.445 973.722 350.83 967.69 342.72C948.28 316.05 976.51 280.62 1006.57 294Z" fill="white"/>
<path d="M880.21 217.86C879.91 223.176 879.91 228.504 880.21 233.82C880.75 241.14 879.55 252.18 868.21 255.51C850.87 260.67 843.19 233.19 843.19 233.19C843.19 233.19 829.27 208.14 848.05 202.5C865.15 197.43 881.17 193.38 880.21 217.86Z" fill="#F4A28C"/>
<path d="M832.9 193.59C828.898 195.618 825.781 199.045 824.14 203.22C823.206 205.276 822.891 207.558 823.232 209.79C823.573 212.022 824.555 214.107 826.06 215.79C834.01 224.1 843.37 233.19 843.37 233.19C843.37 233.19 836.17 219 848.86 219C861.55 219 872.44 227.43 880.21 217.83C887.98 208.23 893.02 202.83 889.51 193.83C886 184.83 886.51 173.01 872.74 178.17C858.97 183.33 864.31 172.71 856.48 165.87C848.65 159.03 835.99 160.05 837.1 169.65C838 177.99 840.79 189.24 832.9 193.59Z" fill="#FFD200"/>
<path d="M844.6 234.21C844.6 234.21 842.68 225.81 835.33 226.95C827.98 228.09 832.54 243.66 844.6 234.21Z" fill="#F4A28C"/>
<path d="M877.63 234.3C877.63 234.3 874.15 226.44 880.63 222.96C887.11 219.48 892.96 234.72 877.63 234.3Z" fill="#F4A28C"/>
<path d="M512.68 676.2L614.2 627.18C614.2 627.18 601.36 515.91 512.68 508.56C424 501.21 481 644.73 512.68 676.2Z" fill="#4550E6"/>
<path opacity="0.2" d="M512.68 676.2L614.2 627.18C614.2 627.18 601.36 515.91 512.68 508.56C424 501.21 481 644.73 512.68 676.2Z" fill="white"/>
<path d="M822.79 663.12L813.76 697.17L864.88 680.16L822.79 663.12Z" fill="#A5A5A5"/>
<path d="M1035.28 506.25C1035.3 498.523 1032.45 491.063 1027.29 485.316C1022.12 479.568 1015.01 475.942 1007.32 475.14C998.32 474.24 990.31 475.59 988.18 482.58C982.9 499.89 1018.18 506.25 1018.18 506.25H1035.28Z" fill="#F4A28C"/>
<path opacity="0.31" d="M373.54 508.56L388.87 504.06L378.4 459C378.4 459 357.88 451.83 358.15 424.77C358.15 424.77 332.62 402.81 361.6 367.77C361.6 367.77 335.71 372.39 332.68 398.55C332.544 409.502 335.542 420.265 341.32 429.57C341.32 429.57 348.94 462.9 366.43 462.84L373.54 508.56Z" fill="#CE8172"/>
<path d="M845.442 727.545L819.197 734.138L830.467 779.004L856.712 772.412L845.442 727.545Z" fill="#24285B"/>
<path d="M837.91 770.52C847.404 770.52 855.1 762.824 855.1 753.33C855.1 743.836 847.404 736.14 837.91 736.14C828.416 736.14 820.72 743.836 820.72 753.33C820.72 762.824 828.416 770.52 837.91 770.52Z" fill="#FFD200"/>
<path opacity="0.31" d="M549.7 658.32C549.7 658.32 600.91 812.43 826.18 762.18L829.42 775.05C829.42 775.05 603.61 844.83 512.68 676.2L549.7 658.32Z" fill="#CE8172"/>
<path opacity="0.08" d="M549.7 658.32L512.68 676.32C512.68 676.32 435.58 568.8 477.94 517.92C478 517.8 494.71 615 549.7 658.32Z" fill="black"/>
<path d="M893.35 263.22C893.35 263.22 857.14 276 855.73 302.49C855.73 302.49 892.99 300.24 910.57 270.6C908.851 267.705 906.257 265.431 903.162 264.104C900.068 262.778 896.632 262.468 893.35 263.22Z" fill="white"/>
</svg>
