<svg width="1280" height="960" viewBox="0 0 1280 960" fill="none" xmlns="http://www.w3.org/2000/svg">
<rect width="1280" height="960" fill="#CAE8FF"/>
<path d="M551.65 358.71C551.65 358.71 563.05 330.06 570.88 331.26C578.71 332.46 572.5 343.53 572.5 343.53C572.5 343.53 591.97 335.28 598.18 341.1C604.39 346.92 566.44 369 566.44 369L551.65 358.71Z" fill="#F4A28C"/>
<path d="M490.66 425.73L548.44 353.76L573.37 370.86L528.97 491.88L472.27 492.12L490.66 425.73Z" fill="#4550E6"/>
<path opacity="0.09" d="M490.66 425.73L548.44 353.76L573.37 370.86L528.97 491.88L472.27 492.12L490.66 425.73Z" fill="black"/>
<path d="M857.23 399.36L899.11 491.88H819.4L857.23 399.36Z" fill="#24285B"/>
<path opacity="0.44" d="M857.23 399.36L899.11 491.88H819.4L857.23 399.36Z" fill="white"/>
<path d="M568.99 468.81L621.4 353.01C622.658 350.229 624.691 347.87 627.256 346.215C629.82 344.56 632.808 343.68 635.86 343.68H864.79C867.047 343.681 869.269 344.236 871.261 345.297C873.252 346.359 874.953 347.893 876.212 349.766C877.472 351.639 878.251 353.792 878.483 356.037C878.714 358.282 878.391 360.55 877.54 362.64L828.1 483.54C827.096 486.009 825.377 488.122 823.165 489.608C820.952 491.094 818.345 491.885 815.68 491.88H583.87C581.138 491.884 578.448 491.201 576.049 489.895C573.649 488.589 571.615 486.702 570.134 484.406C568.653 482.11 567.772 479.479 567.572 476.754C567.373 474.029 567.86 471.298 568.99 468.81V468.81Z" fill="#24285B"/>
<path d="M599.77 462.21L643.63 365.28C644.417 363.558 645.686 362.101 647.283 361.084C648.88 360.068 650.737 359.535 652.63 359.55H841.78C842.717 359.567 843.635 359.813 844.456 360.266C845.276 360.718 845.974 361.364 846.488 362.148C847.002 362.931 847.318 363.828 847.407 364.76C847.496 365.693 847.356 366.633 847 367.5L805 469.95C804.256 471.724 803.006 473.24 801.405 474.307C799.804 475.375 797.924 475.946 796 475.95H608.65C607.024 475.947 605.425 475.538 603.997 474.759C602.57 473.981 601.36 472.858 600.478 471.492C599.595 470.127 599.068 468.562 598.944 466.941C598.821 465.32 599.105 463.694 599.77 462.21Z" fill="white"/>
<path d="M784.78 370.86L750.16 454.53H794.41L824.2 370.86H784.78Z" fill="#E6E6E6"/>
<path opacity="0.51" d="M659.5 370.86L650.86 389.49H766.99L773.83 370.86H659.5Z" fill="#E6E6E6"/>
<path opacity="0.66" d="M766.48 148.89H574.78V283.11H766.48V148.89Z" fill="#E6E6E6"/>
<path opacity="0.31" d="M1019.5 216.36H871.24V320.16H1019.5V216.36Z" fill="#E6E6E6"/>
<path opacity="0.3" d="M633.55 837.33C921.627 837.33 1155.16 818.499 1155.16 795.27C1155.16 772.041 921.627 753.21 633.55 753.21C345.473 753.21 111.94 772.041 111.94 795.27C111.94 818.499 345.473 837.33 633.55 837.33Z" fill="#E6E6E6"/>
<path d="M973.15 491.88H271.3V793.77H973.15V491.88Z" fill="#E6E6E6"/>
<path d="M791.59 535.32H314.62V793.77H791.59V535.32Z" fill="#C1C1C1"/>
<path d="M443.47 653.13L430.3 782.22H457.15L490.66 645.9L465.1 635.82L443.47 653.13Z" fill="#24285B"/>
<path d="M397.6 657.45H367.78V761.31H397.6V657.45Z" fill="#FFD200"/>
<path opacity="0.15" d="M397.6 657.45H367.78V761.31H397.6V657.45Z" fill="black"/>
<path d="M340 579.48C340 579.48 341.41 614.88 361.27 628.59C374.29 637.59 440.05 642.54 483.73 644.88C488.811 645.154 493.781 646.47 498.331 648.748C502.881 651.025 506.914 654.215 510.178 658.118C513.442 662.021 515.868 666.554 517.305 671.435C518.742 676.316 519.159 681.441 518.53 686.49L506.53 782.22H533.95L559.78 667.8C562.992 653.557 560.874 638.631 553.826 625.845C546.778 613.058 535.288 603.298 521.53 598.41L460.27 576.66L340 579.48Z" fill="#24285B"/>
<path d="M456.97 289.92L451.03 327.54L417.31 330.51L436.96 270.18L456.97 289.92Z" fill="#F4A28C"/>
<path d="M449.68 249C452.431 247.948 455.402 247.599 458.322 247.985C461.243 248.371 464.02 249.48 466.404 251.211C468.787 252.942 470.701 255.24 471.972 257.898C473.242 260.555 473.829 263.488 473.68 266.43C473.11 280.53 469.6 300 454.15 297C430.51 292.26 435.7 261.48 435.7 261.48C439.016 256.023 443.883 251.678 449.68 249V249Z" fill="#F4A28C"/>
<path d="M316.51 459.18C307.87 408.78 329.47 357.18 372.79 330.18C391.839 317.785 414.506 312.163 437.14 314.22C517 321.6 546.34 412.92 504.49 482.52C493.656 500.927 484.133 520.075 475.99 539.82L460.39 576.78L337.03 578.88L316.51 459.18Z" fill="#4550E6"/>
<path d="M433 782.22L430.6 793.65C430.31 795.03 430.331 796.457 430.663 797.827C430.994 799.197 431.626 800.477 432.514 801.571C433.402 802.666 434.524 803.55 435.796 804.156C437.068 804.763 438.46 805.079 439.87 805.08H463.39C464.616 805.064 465.804 804.654 466.778 803.909C467.753 803.164 468.461 802.125 468.797 800.946C469.134 799.767 469.082 798.511 468.648 797.364C468.215 796.218 467.423 795.241 466.39 794.58L446.89 782.22H433Z" fill="#4550E6"/>
<path d="M511.75 782.22L509.35 793.65C509.054 795.03 509.071 796.459 509.4 797.832C509.729 799.205 510.361 800.486 511.251 801.583C512.14 802.679 513.263 803.562 514.538 804.167C515.814 804.773 517.208 805.084 518.62 805.08H542.11C543.336 805.064 544.524 804.654 545.498 803.909C546.472 803.164 547.18 802.125 547.517 800.946C547.854 799.767 547.802 798.511 547.368 797.364C546.935 796.218 546.143 795.241 545.11 794.58C539.77 791.19 533.11 787.02 525.58 782.22H511.75Z" fill="#4550E6"/>
<path d="M430.48 364.44C431.136 357.241 433.756 350.361 438.054 344.549C442.353 338.737 448.164 334.216 454.855 331.48C461.546 328.745 468.86 327.898 475.999 329.034C483.138 330.169 489.828 333.243 495.34 337.92C507.204 347.958 516.814 360.39 523.54 374.4C546.61 422.73 583.39 454.47 707.47 451.56V481.86C707.47 481.86 527.11 520.08 462.22 447.24C434.53 416.19 428.41 387.33 430.48 364.44Z" fill="#4550E6"/>
<path opacity="0.44" d="M430.48 364.44C431.136 357.241 433.756 350.361 438.054 344.549C442.353 338.737 448.164 334.216 454.855 331.48C461.546 328.745 468.86 327.898 475.999 329.034C483.138 330.169 489.828 333.243 495.34 337.92C507.204 347.958 516.814 360.39 523.54 374.4C546.61 422.73 583.39 454.47 707.47 451.56V481.86C707.47 481.86 527.11 520.08 462.22 447.24C434.53 416.19 428.41 387.33 430.48 364.44Z" fill="white"/>
<path opacity="0.58" d="M1031.89 759.24C1031.89 759.24 1004.65 751.8 998.74 726.48C998.74 726.48 1040.92 717.93 1042.12 761.49L1031.89 759.24Z" fill="#4550E6"/>
<path opacity="0.73" d="M1035.22 756.54C1035.22 756.54 1016.2 726.54 1032.94 698.34C1032.94 698.34 1065.04 718.74 1050.76 756.63L1035.22 756.54Z" fill="#4550E6"/>
<path d="M718.26 426.592L713.272 429.472L748.732 490.89L753.72 488.01L718.26 426.592Z" fill="#FFD200"/>
<path d="M1040.14 756.57C1040.14 756.57 1050.19 724.8 1080.58 718.8C1080.58 718.8 1086.25 739.41 1060.9 756.66L1040.14 756.57Z" fill="#4550E6"/>
<path d="M1020.37 755.85L1025.89 793.62L1060.66 793.77L1065.79 756.06L1020.37 755.85Z" fill="#24285B"/>
<path d="M707.47 459.81C707.47 459.81 732.34 443.22 745.33 454.77C758.32 466.32 707.47 481.77 707.47 481.77V459.81Z" fill="#F4A28C"/>
<path opacity="0.09" d="M443.41 286.05L437.14 314.1C437.14 314.1 368.5 354.84 364.69 417.78C364.69 417.78 353.92 531.21 419.08 576.78L346.84 578.88L319 404.28C319 404.28 340.6 319.74 422.95 313.68L431.56 287.25L443.41 286.05Z" fill="black"/>
<path d="M427.15 270.78C427.15 270.78 423.37 283.41 433.15 288.42C442.93 293.43 455.53 270.42 455.53 270.42C455.53 270.42 477.55 266.64 486.67 255.12C491.65 248.79 484.9 240.12 477.22 242.61C474.794 243.313 472.226 243.367 469.773 242.767C467.32 242.167 465.067 240.934 463.24 239.19C449.41 228 417.67 236.04 427.15 270.78Z" fill="#24285B"/>
<path d="M457 270.84C457 270.84 456.34 262.38 448.75 265.71C441.16 269.04 446.56 279.84 451.75 279.54C456.94 279.24 457 270.84 457 270.84Z" fill="#F4A28C"/>
<path d="M310.96 627.96C310.96 627.96 455.44 601.92 471.31 627.15C487.18 652.38 473.11 692.07 412.33 681.15C351.55 670.23 277 702.99 310.96 627.96Z" fill="#FFD200"/>
<path d="M308.2 576.9C298.24 575.097 288.775 571.208 280.424 565.488C272.073 559.769 265.027 552.348 259.746 543.713C254.465 535.078 251.07 525.424 249.784 515.385C248.497 505.346 249.348 495.147 252.28 485.46C264.61 444.66 288.49 401.22 334.12 404.46C409 409.8 454.39 604.02 308.2 576.9Z" fill="#FFD200"/>
<path opacity="0.09" d="M326.71 404.34C326.71 404.34 241.48 503.58 319 563.19L303.04 576.66C303.04 576.66 233.5 554.7 253 483C253 483 275.44 405.63 326.71 404.34Z" fill="black"/>
<path d="M347.17 667.26C344.586 667.254 342.054 666.538 339.85 665.19C279.04 628.29 310.69 504.87 314.47 490.92C314.958 489.129 315.795 487.453 316.931 485.985C318.068 484.518 319.482 483.289 321.094 482.368C322.706 481.447 324.483 480.853 326.324 480.619C328.165 480.385 330.034 480.517 331.825 481.005C333.616 481.494 335.292 482.33 336.76 483.467C338.227 484.603 339.456 486.018 340.377 487.629C341.297 489.241 341.892 491.018 342.126 492.859C342.36 494.7 342.228 496.569 341.74 498.36V498.36C333.58 528.36 318.37 619.11 354.49 641.04C357.131 642.637 359.176 645.056 360.313 647.925C361.45 650.794 361.616 653.957 360.786 656.929C359.956 659.902 358.176 662.521 355.717 664.387C353.258 666.252 350.256 667.261 347.17 667.26V667.26Z" fill="#FFD200"/>
<path opacity="0.44" d="M347.17 667.26C344.586 667.254 342.054 666.538 339.85 665.19C279.04 628.29 310.69 504.87 314.47 490.92C314.958 489.129 315.795 487.453 316.931 485.985C318.068 484.518 319.482 483.289 321.094 482.368C322.706 481.447 324.483 480.853 326.324 480.619C328.165 480.385 330.034 480.517 331.825 481.005C333.616 481.494 335.292 482.33 336.76 483.467C338.227 484.603 339.456 486.018 340.377 487.629C341.297 489.241 341.892 491.018 342.126 492.859C342.36 494.7 342.228 496.569 341.74 498.36V498.36C333.58 528.36 318.37 619.11 354.49 641.04C357.131 642.637 359.176 645.056 360.313 647.925C361.45 650.794 361.616 653.957 360.786 656.929C359.956 659.902 358.176 662.521 355.717 664.387C353.258 666.252 350.256 667.261 347.17 667.26V667.26Z" fill="white"/>
<path d="M367.78 761.31L314.62 807.96H455.44L397.6 761.31H367.78Z" fill="#FFD200"/>
<path d="M625.36 213.6C637.703 213.6 647.71 203.594 647.71 191.25C647.71 178.906 637.703 168.9 625.36 168.9C613.016 168.9 603.01 178.906 603.01 191.25C603.01 203.594 613.016 213.6 625.36 213.6Z" fill="#E6E6E6"/>
<path opacity="0.45" d="M738.13 172.26H675.13V259.77H738.13V172.26Z" fill="#C1C1C1"/>
<path d="M650.14 230.43H606.85V259.77H650.14V230.43Z" fill="#C1C1C1"/>
<path opacity="0.09" d="M791.59 712.26H650.11V793.77H791.59V712.26Z" fill="black"/>
</svg>
